<?xml version="1.0" encoding="utf-8"?>
<!-- Generator: Adobe Illustrator 21.1.0, SVG Export Plug-In . SVG Version: 6.00 Build 0)  -->
<svg version="1.1" id="Layer_1" xmlns="http://www.w3.org/2000/svg" xmlns:xlink="http://www.w3.org/1999/xlink" x="0px" y="0px"
	 viewBox="0 0 187.8 30" style="enable-background:new 0 0 187.8 30;" xml:space="preserve">
<style type="text/css">
	.st0{fill:#95BE4D;}
	.st1{fill:#FFFFFF;}
	.st2{fill:#D15364;}
</style>
<g>
	<g>
		<path class="st0" d="M26,3.1c-2.8-2-6.1-3.1-9.5-3.1C7.4,0,0,7.4,0,16.6c0,5.2,2.3,9.9,6.4,13.1C6.7,29.9,7,30,7.3,30
			c0.4,0,0.9-0.2,1.2-0.6c0.5-0.7,0.4-1.6-0.3-2.1C4.9,24.7,3,20.8,3,16.6C3,9.1,9.1,3,16.5,3c2.8,0,5.5,0.9,7.8,2.5
			C25,6,25.9,5.8,26.4,5.2C26.9,4.5,26.7,3.5,26,3.1z M57.9,15.9c0-1.2-0.4-2.2-1.1-3c-1-1-2.6-1.5-5.1-1.5h-5.5L42.2,26h4.1
			l1.2-4.5h1.8l2,4.5h4.5l-2.3-5C56.4,20.3,57.9,18.3,57.9,15.9z M50.6,18.4h-2.3l1-3.5h2.2c0.9,0,1.5,0.2,1.8,0.5
			c0.3,0.3,0.4,0.6,0.4,1C53.7,17.6,52.5,18.4,50.6,18.4z M66.2,11.2L56,26h4.4l1.8-2.6h5.7l0.4,2.6h4.3l-2.3-14.8H66.2z M64.2,20.2
			L67,16l0.5,4.2H64.2z M80.9,22.6c-1.7,0-2.9-1.2-2.9-3c0-2.6,2-4.9,4.4-4.9c1.4,0,2.4,0.7,3,1.9l3.5-1.9c-0.9-2.3-3-3.7-6-3.7
			c-5.6,0-9.2,4.5-9.2,8.9c0,3.9,2.9,6.4,6.9,6.4c2.8,0,4.7-1.1,6.2-2.8l-2.8-2.4C83.1,22.1,82.2,22.6,80.9,22.6z M102.5,14.8
			l0.9-3.5H91.6L87.7,26h11.9l0.9-3.5h-7.9l0.6-2.3h7l0.9-3.2h-7l0.6-2.2H102.5z"/>
	</g>
</g>
<g>
	<g>
		<path class="st1" d="M111.8,11.1c-5.1,0-8.8,4.2-8.8,8.7c0,3.7,2.8,6.6,7,6.6c5.1,0,8.8-4.2,8.8-8.7
			C118.8,13.9,116,11.1,111.8,11.1z M110.4,22.7c-2.1,0-3.2-1.4-3.2-3.3c0-2.2,1.7-4.7,4.2-4.7c2.1,0,3.2,1.4,3.2,3.3
			C114.7,20.2,113,22.7,110.4,22.7z M127.6,11.4h-4.8L118.8,26h4.1l1.1-4.2h2.4c4.3,0,7.3-2.3,7.3-5.9c0-1.2-0.4-2.2-1.2-3
			C131.5,11.8,129.9,11.4,127.6,11.4z M126.4,18.7h-1.5l1-3.9h1.5c0.8,0,1.3,0.2,1.7,0.6c0.3,0.3,0.4,0.6,0.4,1
			C129.6,17.8,128.4,18.7,126.4,18.7z M148.4,11.4h-12.9l-1,3.6h4.4L136,26h4.1l3-11.1h4.4L148.4,11.4z M146.2,26h4.1l3.9-14.7h-4.1
			L146.2,26z M163.1,11.1c-5.1,0-8.8,4.2-8.8,8.7c0,3.7,2.8,6.6,7,6.6c5.1,0,8.8-4.2,8.8-8.7C170.1,13.9,167.2,11.1,163.1,11.1z
			 M161.7,22.7c-2.1,0-3.2-1.4-3.2-3.3c0-2.2,1.7-4.7,4.2-4.7c2.1,0,3.2,1.4,3.2,3.3C165.9,20.2,164.3,22.7,161.7,22.7z M183.8,11.4
			l-2.2,8.2l-3.8-8.2H174L170,26h4.1l2.3-8.5l4,8.5h3.6l3.9-14.7H183.8z M27.9,7.2l-15.2,8.7c-0.3,0.2-0.7,0.5-0.9,0.8
			c-2.4,2.4-2.4,6.2,0,8.6s6.2,2.4,8.6,0c0.3-0.3,0.5-0.6,0.8-1l8.7-15.1c0.3-0.5,0.2-1.2-0.2-1.7C29.2,7,28.5,6.9,27.9,7.2z
			 M18.8,22.7c-0.1,0.2-0.3,0.4-0.4,0.5c-1.3,1.3-3.3,1.3-4.6,0c-1.3-1.3-1.3-3.3,0-4.6c0.2-0.2,0.3-0.3,0.4-0.4l10.7-6.1L18.8,22.7
			z"/>
	</g>
</g>
<path class="st2" d="M26.2,30c-0.4,0-0.9-0.2-1.2-0.6c-0.5-0.7-0.4-1.6,0.3-2.1c3.3-2.6,5.3-6.5,5.3-10.7c0-0.6,0-1.2-0.2-1.9
	c-0.1-0.8,0.5-1.6,1.3-1.7c0.8-0.1,1.6,0.5,1.7,1.3c0.1,0.9,0.2,1.6,0.2,2.4c0,5.2-2.3,9.9-6.4,13.1C26.8,29.9,26.5,30,26.2,30z"/>
</svg>
