<svg width="72" height="72" viewBox="0 0 72 72" fill="none" xmlns="http://www.w3.org/2000/svg">
<path d="M35.9987 70.8004C55.2185 70.8004 70.7992 55.2197 70.7992 35.9999C70.7992 16.7802 55.2185 1.19946 35.9987 1.19946C16.7789 1.19946 1.19824 16.7802 1.19824 35.9999C1.19824 55.2197 16.7789 70.8004 35.9987 70.8004Z" fill="#9FC9D3"/>
<path d="M36 0C16.1184 0 0 16.1184 0 36C0 55.8816 16.1184 72 36 72C55.8816 72 72 55.8816 72 36C71.9775 16.1269 55.8731 0.0225 36 0ZM37.1995 69.5278V56.4005H34.7991V69.5278C28.9955 68.8978 23.8795 63.7425 20.603 56.0517C30.6844 53.3095 41.3142 53.3095 51.3956 56.0517C48.1205 63.7425 43.0031 68.8978 37.1995 69.5278ZM36 51.5995C30.5016 51.5995 25.0284 52.342 19.7283 53.8045C17.7455 48.0797 16.7555 42.0581 16.8005 35.9986C16.7555 29.9419 17.7455 23.9217 19.7269 18.1983C25.027 19.6594 30.5016 20.4005 36 20.3991C41.4984 20.3991 46.9716 19.6566 52.2717 18.1941C54.2545 23.9189 55.2445 29.9405 55.1995 36C55.2445 42.0567 54.2545 48.0769 52.2731 53.8003C46.973 52.3392 41.4984 51.5995 36 51.5995ZM14.4183 34.8005H2.43C2.68453 27.4205 5.37328 20.3316 10.08 14.6405C12.4791 15.7584 14.947 16.7217 17.4713 17.5205C15.5264 23.078 14.4956 28.9125 14.4183 34.8005ZM14.4183 37.1995C14.4956 43.0861 15.5264 48.922 17.4713 54.4795C14.9484 55.2783 12.4791 56.2416 10.08 57.3595C5.37328 51.6684 2.68453 44.5795 2.43 37.1995H14.4183ZM34.8005 2.47219V15.5995H37.2009V2.47219C43.0045 3.10219 48.1205 8.2575 51.397 15.9483C46.3767 17.3095 41.2003 18 36 18C30.7997 18 25.6233 17.3095 20.6044 15.9483C23.8795 8.2575 28.9969 3.10219 34.8005 2.47219ZM57.5817 37.1995H69.57C69.3155 44.5795 66.6267 51.6684 61.92 57.3595C59.5209 56.2416 57.053 55.2783 54.5288 54.4795C56.4736 48.922 57.5044 43.0875 57.5817 37.1995ZM57.5817 34.8005C57.5044 28.9139 56.4736 23.078 54.5288 17.5205C57.0516 16.7217 59.5209 15.7584 61.92 14.6405C66.6267 20.3316 69.3155 27.4205 69.57 34.8005H57.5817ZM60.2395 12.7631C58.0964 13.7348 55.8984 14.5758 53.6541 15.2831C51.9244 10.8928 49.192 6.96938 45.6764 3.82359C51.2198 5.49984 56.2359 8.57953 60.2395 12.7631ZM26.3278 3.825C22.8122 6.97078 20.0798 10.8956 18.3502 15.2845C16.1058 14.5772 13.9078 13.7362 11.7647 12.7645C15.7683 8.58094 20.7844 5.50266 26.3278 3.825ZM11.7605 59.2369C13.9036 58.2652 16.1016 57.4242 18.3459 56.7169C20.0756 61.1072 22.808 65.0306 26.3236 68.1764C20.7802 66.5002 15.7641 63.4205 11.7605 59.2369ZM45.6722 68.175C49.1878 65.0292 51.9202 61.1044 53.6498 56.7155C55.8942 57.4228 58.0922 58.2638 60.2353 59.2355C56.2317 63.4191 51.2156 66.4973 45.6722 68.175Z" fill="#2980BA"/>
<path d="M36.0001 56.4006C47.2669 56.4006 56.4006 47.2669 56.4006 36.0001C56.4006 24.7332 47.2669 15.5996 36.0001 15.5996C24.7332 15.5996 15.5996 24.7332 15.5996 36.0001C15.5996 47.2669 24.7332 56.4006 36.0001 56.4006Z" fill="#464F5D"/>
<path fill-rule="evenodd" clip-rule="evenodd" d="M43.2 27.6004V30.0009C43.2 31.327 42.1256 32.4013 40.7995 32.4013H31.199V33.231C31.199 33.8301 30.8517 34.3743 30.3103 34.6288C29.7675 34.8834 29.1276 34.8004 28.6678 34.4179L23.3521 29.9896C23.0034 29.6929 22.8037 29.2584 22.8037 28.8013C22.8037 28.3443 23.0048 27.9098 23.3521 27.613L28.6678 23.1848C29.1276 22.8023 29.7689 22.7193 30.3103 22.9738C30.8531 23.2284 31.199 23.7726 31.199 24.3716V25.2013H40.7995C42.1256 25.1999 43.2 26.2743 43.2 27.6004Z" fill="#4FBA6F"/>
<path fill-rule="evenodd" clip-rule="evenodd" d="M28.7993 42.0005V44.401C28.7993 45.7271 29.8737 46.8015 31.1998 46.8015H40.8003V47.6312C40.8003 48.2302 41.1476 48.7744 41.689 49.029C42.2318 49.2835 42.8717 49.2005 43.3315 48.818L48.6471 44.3898C48.9959 44.093 49.1956 43.6585 49.1956 43.2015C49.1956 42.7444 48.9945 42.3099 48.6471 42.0132L43.3315 37.5849C42.8717 37.2024 42.2304 37.1194 41.689 37.374C41.1462 37.6285 40.8003 38.1727 40.8003 38.7718V39.6015H31.1998C29.8737 39.6001 28.7993 40.6744 28.7993 42.0005Z" fill="#FF5364"/>
</svg>
