<svg width="156" height="176" viewBox="0 0 156 176" fill="none" xmlns="http://www.w3.org/2000/svg">
<g filter="url(#filter0_f)">
<path d="M120.561 111.35C127.151 115.16 127.191 121.33 120.641 125.13L89.8914 143C83.3414 146.81 72.6914 146.81 66.0914 143L35.1414 125.13C28.5514 121.32 28.5114 115.15 35.0614 111.35L65.8114 93.4799C72.3614 89.6699 83.0114 89.6699 89.6114 93.4799L120.561 111.35Z" fill="#0048BC" fill-opacity="0.75"/>
</g>
<path d="M128.382 92.85C136.182 97.35 136.222 104.65 128.472 109.16L92.0917 130.3C84.3417 134.8 71.7417 134.8 63.9417 130.3L27.3217 109.16C19.5217 104.66 19.4817 97.36 27.2317 92.85L63.6116 71.71C71.3616 67.21 83.9617 67.21 91.7617 71.71L128.382 92.85Z" stroke="#0048BC" stroke-width="2" stroke-miterlimit="10"/>
<path d="M109.352 26.08L86.7125 39.24C81.8925 42.04 74.0425 42.04 69.1925 39.24L46.4025 26.08C43.9625 24.67 42.7425 22.82 42.7425 20.97L42.7325 100.44C42.7225 102.29 43.9425 104.14 46.3925 105.55L69.1825 118.71C74.0325 121.51 81.8825 121.51 86.7025 118.71L109.342 105.55C111.742 104.16 112.942 102.34 112.942 100.51L112.952 21.04C112.952 22.86 111.752 24.68 109.352 26.08Z" fill="#0048BC"/>
<path d="M109.302 15.9299C114.152 18.7299 114.182 23.2799 109.362 26.0799L86.7222 39.2399C81.9022 42.0399 74.0522 42.0399 69.2022 39.2399L46.4122 26.0799C41.5622 23.2799 41.5322 18.7299 46.3522 15.9299L68.9922 2.76992C73.8122 -0.0300782 81.6622 -0.0300782 86.5122 2.76992L109.302 15.9299Z" fill="#0055FF"/>
<path d="M77 28.1992H65.0234V25.6797L69.3242 21.332C70.5977 20.0273 71.4297 19.125 71.8203 18.625C72.2109 18.1172 72.4922 17.6484 72.6641 17.2188C72.8359 16.7891 72.9219 16.3438 72.9219 15.8828C72.9219 15.1953 72.7305 14.6836 72.3477 14.3477C71.9727 14.0117 71.4688 13.8438 70.8359 13.8438C70.1719 13.8438 69.5273 13.9961 68.9023 14.3008C68.2773 14.6055 67.625 15.0391 66.9453 15.6016L64.9766 13.2695C65.8203 12.5508 66.5195 12.043 67.0742 11.7461C67.6289 11.4492 68.2344 11.2227 68.8906 11.0664C69.5469 10.9023 70.2812 10.8203 71.0938 10.8203C72.1641 10.8203 73.1094 11.0156 73.9297 11.4062C74.75 11.7969 75.3867 12.3438 75.8398 13.0469C76.293 13.75 76.5195 14.5547 76.5195 15.4609C76.5195 16.25 76.3789 16.9922 76.0977 17.6875C75.8242 18.375 75.3945 19.082 74.8086 19.8086C74.2305 20.5352 73.207 21.5703 71.7383 22.9141L69.5352 24.9883V25.1523H77V28.1992ZM82.332 21.5078L78.1133 15.0977H82.168L84.7109 19.2695L87.2773 15.0977H91.332L87.0664 21.5078L91.5312 28.1992H87.4648L84.7109 23.7109L81.9453 28.1992H77.8906L82.332 21.5078Z" fill="white"/>
<defs>
<filter id="filter0_f" x="0.173828" y="60.6224" width="155.355" height="115.235" filterUnits="userSpaceOnUse" color-interpolation-filters="sRGB">
<feFlood flood-opacity="0" result="BackgroundImageFix"/>
<feBlend mode="normal" in="SourceGraphic" in2="BackgroundImageFix" result="shape"/>
<feGaussianBlur stdDeviation="15" result="effect1_foregroundBlur"/>
</filter>
</defs>
</svg>
