<svg width="156" height="207" viewBox="0 0 156 207" fill="none" xmlns="http://www.w3.org/2000/svg">
<g filter="url(#filter0_f)">
<path d="M120.643 141.56C127.233 145.37 127.273 151.54 120.723 155.34L89.9735 173.21C83.4235 177.02 72.7735 177.02 66.1735 173.21L35.2235 155.34C28.6335 151.53 28.5935 145.36 35.1435 141.56L65.8935 123.69C72.4435 119.88 83.0935 119.88 89.6935 123.69L120.643 141.56Z" fill="#002760" fill-opacity="0.75"/>
</g>
<path d="M126.904 125.11C134.464 129.47 134.504 136.55 126.994 140.91L91.7342 161.4C84.2242 165.76 72.0042 165.76 64.4442 161.4L28.9542 140.91C21.3942 136.55 21.3542 129.47 28.8642 125.11L64.1241 104.62C71.6341 100.26 83.8542 100.26 91.4142 104.62L126.904 125.11Z" stroke="#002760" stroke-width="2" stroke-miterlimit="10"/>
<path d="M109.444 25.41L86.8043 38.57C81.9843 41.37 74.1343 41.37 69.2843 38.57L46.4943 25.41C44.0543 24 42.8343 22.15 42.8343 20.3L42.8243 131.51C42.8143 133.36 44.0343 135.21 46.4843 136.62L69.2743 149.78C74.1243 152.58 81.9743 152.58 86.7943 149.78L109.434 136.62C111.834 135.23 113.034 133.41 113.034 131.58L113.044 20.3701C113.034 22.1901 111.834 24.02 109.444 25.41Z" fill="#002760"/>
<path d="M109.384 15.26C114.244 18.06 114.264 22.61 109.444 25.41L86.8042 38.57C81.9842 41.37 74.1342 41.37 69.2842 38.57L46.4942 25.41C41.6442 22.61 41.6142 18.06 46.4342 15.26L69.0742 2.1C73.8942 -0.7 81.7442 -0.7 86.5942 2.1L109.384 15.26Z" fill="#003399"/>
<path d="M76.418 14.9192C76.418 15.9895 76.0938 16.8997 75.4453 17.6497C74.7969 18.3997 73.8867 18.9153 72.7148 19.1965V19.2668C74.0977 19.4387 75.1445 19.8606 75.8555 20.5325C76.5664 21.1965 76.9219 22.095 76.9219 23.2278C76.9219 24.8762 76.3242 26.1614 75.1289 27.0833C73.9336 27.9973 72.2266 28.4543 70.0078 28.4543C68.1484 28.4543 66.5 28.1458 65.0625 27.5286V24.4465C65.7266 24.7825 66.457 25.0559 67.2539 25.2668C68.0508 25.4778 68.8398 25.5833 69.6211 25.5833C70.8164 25.5833 71.6992 25.3801 72.2695 24.9739C72.8398 24.5676 73.125 23.9153 73.125 23.0168C73.125 22.2122 72.7969 21.6418 72.1406 21.3059C71.4844 20.97 70.4375 20.802 69 20.802H67.6992V18.0247H69.0234C70.3516 18.0247 71.3203 17.8528 71.9297 17.509C72.5469 17.1575 72.8555 16.5598 72.8555 15.7161C72.8555 14.4192 72.043 13.7708 70.418 13.7708C69.8555 13.7708 69.2812 13.8645 68.6953 14.052C68.1172 14.2395 67.4727 14.5637 66.7617 15.0247L65.0859 12.5286C66.6484 11.4036 68.5117 10.8411 70.6758 10.8411C72.4492 10.8411 73.8477 11.2004 74.8711 11.9192C75.9023 12.6379 76.418 13.6379 76.418 14.9192ZM82.418 21.5286L78.1992 15.1184H82.2539L84.7969 19.2903L87.3633 15.1184H91.418L87.1523 21.5286L91.6172 28.22H87.5508L84.7969 23.7317L82.0312 28.22H77.9766L82.418 21.5286Z" fill="white"/>
<defs>
<filter id="filter0_f" x="0.255859" y="90.8325" width="155.355" height="115.235" filterUnits="userSpaceOnUse" color-interpolation-filters="sRGB">
<feFlood flood-opacity="0" result="BackgroundImageFix"/>
<feBlend mode="normal" in="SourceGraphic" in2="BackgroundImageFix" result="shape"/>
<feGaussianBlur stdDeviation="15" result="effect1_foregroundBlur"/>
</filter>
</defs>
</svg>
