<svg width="156" height="127" viewBox="0 0 156 127" fill="none" xmlns="http://www.w3.org/2000/svg">
<g filter="url(#filter0_f)">
<path d="M120.52 62.17C127.11 65.98 127.15 72.15 120.6 75.95L89.8504 93.82C83.3004 97.63 72.6504 97.63 66.0504 93.82L35.1004 75.96C28.5104 72.15 28.4704 65.98 35.0204 62.18L65.7704 44.31C72.3204 40.5 82.9704 40.5 89.5704 44.31L120.52 62.17Z" fill="#0088CC" fill-opacity="0.75"/>
</g>
<path d="M127.8 42.2799C135.52 46.7399 135.56 53.9599 127.89 58.4199L91.9003 79.3299C84.2303 83.7899 71.7603 83.7899 64.0403 79.3299L27.8203 58.4199C20.1003 53.9599 20.0603 46.7399 27.7303 42.2799L63.7203 21.3599C71.3903 16.8999 83.8603 16.8999 91.5803 21.3599L127.8 42.2799Z" stroke="#0088CC" stroke-width="2" stroke-miterlimit="10"/>
<path d="M109.31 25.4201L86.6695 28.5801C81.8495 31.3801 73.9995 31.3801 69.1495 28.5801L46.3595 25.4201C43.9195 24.0101 42.6995 22.1601 42.6995 20.3101L42.6895 51.5201C42.6795 53.3701 43.8995 55.2201 46.3495 56.6301L69.1395 69.7901C73.9895 72.5901 81.8395 72.5901 86.6595 69.7901L109.3 56.6301C111.7 55.2401 112.9 53.4201 112.9 51.5901L112.91 20.3801C112.91 22.2101 111.71 24.0301 109.31 25.4201Z" fill="#0088CC"/>
<path d="M109.261 15.26C114.111 18.06 114.141 22.61 109.321 25.41L86.6812 38.57C81.8612 41.37 74.0112 41.37 69.1612 38.57L46.3712 25.41C41.5212 22.61 41.4912 18.06 46.3112 15.26L68.9512 2.1C73.7712 -0.7 81.6212 -0.7 86.4712 2.1L109.261 15.26Z" fill="#00AAFF"/>
<path d="M73.9355 28H70.3145V18.0859L70.3496 16.457L70.4082 14.6758C69.8066 15.2773 69.3887 15.6719 69.1543 15.8594L67.1855 17.4414L65.4395 15.2617L70.959 10.8672H73.9355V28ZM82.291 21.3086L78.0723 14.8984H82.127L84.6699 19.0703L87.2363 14.8984H91.291L87.0254 21.3086L91.4902 28H87.4238L84.6699 23.5117L81.9043 28H77.8496L82.291 21.3086Z" fill="white"/>
<defs>
<filter id="filter0_f" x="0.132812" y="11.4525" width="155.355" height="115.225" filterUnits="userSpaceOnUse" color-interpolation-filters="sRGB">
<feFlood flood-opacity="0" result="BackgroundImageFix"/>
<feBlend mode="normal" in="SourceGraphic" in2="BackgroundImageFix" result="shape"/>
<feGaussianBlur stdDeviation="15" result="effect1_foregroundBlur"/>
</filter>
</defs>
</svg>
