<svg width="157" height="146" viewBox="0 0 157 146" fill="none" xmlns="http://www.w3.org/2000/svg">
<g filter="url(#filter0_f)">
<path d="M121.247 81.3499C127.837 85.1599 127.877 91.3299 121.327 95.1299L90.577 113C84.027 116.81 73.377 116.81 66.777 113L35.827 95.1299C29.237 91.3199 29.197 85.1499 35.747 81.3499L66.497 63.4799C73.047 59.6699 83.697 59.6699 90.297 63.4799L121.247 81.3499Z" fill="#0065F9" fill-opacity="0.75"/>
</g>
<path d="M127.726 63.9299C135.316 68.3099 135.356 75.4199 127.816 79.8099L92.396 100.39C84.856 104.77 72.586 104.77 64.986 100.39L29.336 79.8099C21.746 75.4299 21.706 68.3199 29.246 63.9299L64.666 43.3499C72.206 38.9699 84.476 38.9699 92.076 43.3499L127.726 63.9299Z" stroke="#4E99FC" stroke-width="2" stroke-miterlimit="10"/>
<path d="M110.046 25.61L87.4059 38.77C82.5859 41.57 74.7358 41.57 69.8858 38.77L47.0958 25.61C44.6558 24.2 43.4359 22.35 43.4359 20.5L43.4258 69.97C43.4158 71.82 44.6358 73.67 47.0858 75.08L69.8758 88.24C74.7258 91.04 82.5758 91.04 87.3958 88.24L110.036 75.08C112.436 73.69 113.636 71.87 113.636 70.04L113.646 20.57C113.636 22.39 112.436 24.22 110.046 25.61Z" fill="#0065F9"/>
<path d="M109.986 15.46C114.846 18.26 114.866 22.81 110.046 25.61L87.4058 38.7699C82.5858 41.5699 74.7358 41.5699 69.8858 38.7699L47.0958 25.61C42.2458 22.81 42.2158 18.26 47.0358 15.46L69.6758 2.29995C74.4958 -0.500049 82.3458 -0.500049 87.1958 2.29995L109.986 15.46Z" fill="#1789FC"/>
<path d="M64.3945 27.6184H60.7734V17.7043L60.8086 16.0754L60.8672 14.2942C60.2656 14.8958 59.8477 15.2903 59.6133 15.4778L57.6445 17.0598L55.8984 14.8801L61.418 10.4856H64.3945V27.6184ZM69.5625 25.9426C69.5625 25.2864 69.7383 24.7903 70.0898 24.4543C70.4414 24.1184 70.9531 23.9504 71.625 23.9504C72.2734 23.9504 72.7734 24.1223 73.125 24.4661C73.4844 24.8098 73.6641 25.302 73.6641 25.9426C73.6641 26.5598 73.4844 27.0481 73.125 27.4075C72.7656 27.759 72.2656 27.9348 71.625 27.9348C70.9688 27.9348 70.4609 27.7629 70.1016 27.4192C69.7422 27.0676 69.5625 26.5754 69.5625 25.9426ZM82.2305 16.6731C83.8867 16.6731 85.2031 17.1379 86.1797 18.0676C87.1641 18.9973 87.6562 20.2708 87.6562 21.8879C87.6562 23.802 87.0664 25.2747 85.8867 26.3059C84.707 27.3372 83.0195 27.8528 80.8242 27.8528C78.918 27.8528 77.3789 27.5442 76.207 26.927V23.7981C76.8242 24.1262 77.543 24.3958 78.3633 24.6067C79.1836 24.8098 79.9609 24.9114 80.6953 24.9114C82.9062 24.9114 84.0117 24.0051 84.0117 22.1926C84.0117 20.4661 82.8672 19.6028 80.5781 19.6028C80.1641 19.6028 79.707 19.6458 79.207 19.7317C78.707 19.8098 78.3008 19.8958 77.9883 19.9895L76.5469 19.2161L77.1914 10.4856H86.4844V13.5559H80.3672L80.0508 16.9192L80.4609 16.8372C80.9375 16.7278 81.5273 16.6731 82.2305 16.6731ZM93.3047 20.927L89.0859 14.5168H93.1406L95.6836 18.6887L98.25 14.5168H102.305L98.0391 20.927L102.504 27.6184H98.4375L95.6836 23.1301L92.918 27.6184H88.8633L93.3047 20.927Z" fill="white"/>
<defs>
<filter id="filter0_f" x="0.859375" y="30.6224" width="155.355" height="115.235" filterUnits="userSpaceOnUse" color-interpolation-filters="sRGB">
<feFlood flood-opacity="0" result="BackgroundImageFix"/>
<feBlend mode="normal" in="SourceGraphic" in2="BackgroundImageFix" result="shape"/>
<feGaussianBlur stdDeviation="15" result="effect1_foregroundBlur"/>
</filter>
</defs>
</svg>
