<svg width="1344" height="390" viewBox="0 0 1344 390" fill="none" xmlns="http://www.w3.org/2000/svg"><path fill-rule="evenodd" clip-rule="evenodd" d="M11.069 22.861C4.919 12.867 12.109 0 23.843 0h154.532c8.884 0 17.57 2.63 24.962 7.558l8.701 5.801a45 45 0 0 0 49.923 0l8.702-5.801A45.002 45.002 0 0 1 295.625 0h752.755c8.88 0 17.56 2.63 24.96 7.558l8.7 5.801a44.995 44.995 0 0 0 49.92 0l8.7-5.801A45.024 45.024 0 0 1 1165.62 0h154.54c11.73 0 18.92 12.867 12.77 22.861l-6.25 10.166a29.973 29.973 0 0 0 0 31.446l10.64 17.304a29.973 29.973 0 0 1 0 31.446l-10.64 17.304a29.973 29.973 0 0 0 0 31.446l10.64 17.304a29.973 29.973 0 0 1 0 31.446l-10.64 17.304a29.973 29.973 0 0 0 0 31.446l10.64 17.304a29.973 29.973 0 0 1 0 31.446l-10.64 17.304a29.973 29.973 0 0 0 0 31.446l6.25 10.166c6.15 9.994-1.04 22.861-12.77 22.861h-154.54c-8.88 0-17.56-2.63-24.96-7.558l-8.7-5.801a44.995 44.995 0 0 0-49.92 0l-8.7 5.801a45.025 45.025 0 0 1-24.96 7.558H295.625c-8.884 0-17.57-2.63-24.962-7.558l-8.702-5.801a45 45 0 0 0-49.923 0l-8.701 5.801A45.002 45.002 0 0 1 178.375 390H23.844c-11.735 0-18.926-12.867-12.775-22.861l6.255-10.166a30 30 0 0 0 0-31.446L6.676 308.223a30 30 0 0 1 0-31.446l10.648-17.304a30 30 0 0 0 0-31.446L6.676 210.723a30 30 0 0 1 0-31.446l10.648-17.304a30 30 0 0 0 0-31.446L6.676 113.223a30 30 0 0 1 0-31.446l10.648-17.304a30 30 0 0 0 0-31.446L11.07 22.861zM237 69a9 9 0 0 0 9-9 9 9 0 0 0-9-9 9 9 0 0 0-9 9 9 9 0 0 0 9 9zm9 21a9 9 0 0 1-9 9 9 9 0 0 1-9-9 9 9 0 0 1 9-9 9 9 0 0 1 9 9zm-9 39a9 9 0 0 0 9-9 9 9 0 0 0-9-9 9 9 0 0 0-9 9 9 9 0 0 0 9 9zm9 21a9 9 0 0 1-9 9 9 9 0 0 1-9-9 9 9 0 0 1 9-9 9 9 0 0 1 9 9zm-9 39a9 9 0 0 0 9-9 9 9 0 0 0-9-9 9 9 0 0 0-9 9 9 9 0 0 0 9 9zm9 21a9 9 0 0 1-9 9 9 9 0 0 1-9-9 9 9 0 0 1 9-9 9 9 0 0 1 9 9zm-9 39a9 9 0 0 0 9-9 9 9 0 0 0-9-9 9 9 0 0 0-9 9 9 9 0 0 0 9 9zm9 21a9 9 0 0 1-9 9 9 9 0 0 1-9-9 9 9 0 0 1 9-9 9 9 0 0 1 9 9zm-9 39a9 9 0 0 0 9-9 9 9 0 0 0-9-9 9 9 0 0 0-9 9 9 9 0 0 0 9 9zm9 21a9 9 0 0 1-9 9 9 9 0 0 1-9-9 9 9 0 0 1 9-9 9 9 0 0 1 9 9zm861-261a9 9 0 1 0 0-18 9 9 0 0 0 0 18zm9 21a9 9 0 1 1-18 0 9 9 0 0 1 18 0zm-9 39a9 9 0 1 0 0-18 9 9 0 0 0 0 18zm9 21a9 9 0 1 1-18 0 9 9 0 0 1 18 0zm-9 39a9 9 0 1 0 0-18 9 9 0 0 0 0 18zm9 21a9 9 0 1 1-18 0 9 9 0 0 1 18 0zm-9 39a9 9 0 1 0 0-18 9 9 0 0 0 0 18zm9 21a9 9 0 1 1-18 0 9 9 0 0 1 18 0zm-9 39a9 9 0 1 0 0-18 9 9 0 0 0 0 18zm9 21a9 9 0 1 1-18 0 9 9 0 0 1 18 0z" fill="#fff"/></svg>