<svg width="25" height="25" viewBox="0 0 25 25" fill="none" xmlns="http://www.w3.org/2000/svg"><path fill-rule="evenodd" clip-rule="evenodd" d="M12.5 25C19.404 25 25 19.404 25 12.5S19.404 0 12.5 0 0 5.596 0 12.5 5.596 25 12.5 25z" fill="#fff"/><mask id="a" maskUnits="userSpaceOnUse" x="0" y="0" width="25" height="25"><path fill-rule="evenodd" clip-rule="evenodd" d="M12.5 25C19.404 25 25 19.404 25 12.5S19.404 0 12.5 0 0 5.596 0 12.5 5.596 25 12.5 25z" fill="#fff"/></mask><g mask="url(#a)" fill-rule="evenodd" clip-rule="evenodd"><path d="M-5.105-.745h17.973v13.983H-5.105V-.745zM-2.818.33h-.628l-.18-.537-.18.537h-.627l.494.36-.18.627.493-.404.493.359-.18-.582.495-.36zM12.017 11.85h-.584l-.223-.538-.18.538h-.582l.493.359-.225.627.494-.404.493.404-.18-.627.494-.36zm-2.958 0H8.43l-.18-.538-.18.538h-.627l.494.359-.18.627.494-.404.492.404-.179-.627.494-.36zm-3.004 0h-.582l-.18-.538-.18.538h-.626l.493.359-.224.627.537-.404.493.404-.18-.627.449-.36zm-2.958 0h-.583l-.179-.538-.224.538h-.583l.494.359-.225.627.538-.404.493.404-.224-.627.493-.36zm-2.958 0h-.583l-.224-.538-.179.538h-.582l.493.359-.225.627.493-.404.493.404-.179-.627.493-.36zm-2.957 0h-.628l-.18-.538-.18.538h-.627l.494.359-.18.627.493-.404.493.404-.18-.627.495-.36zm13.266-1.434h-.583l-.18-.538-.179.538h-.628l.494.36-.224.626.538-.403.492.357-.224-.58.494-.36zm-2.959 0h-.582l-.224-.538-.18.538H5.92l.494.36-.224.626.493-.403.493.357-.18-.58.493-.36zm-2.958 0h-.628l-.178-.538-.18.538h-.627l.493.36-.18.626.494-.403.492.357-.179-.58.493-.36zm-2.958 0H.946l-.18-.538-.178.538H-.04l.493.36-.18.626.494-.403.492.357-.18-.58.494-.36zm-3.002 0h-.583l-.18-.538-.18.538h-.626l.492.36-.224.626.539-.403.492.357-.224-.58.494-.36zm11.877-2.868h-.583l-.18-.538-.179.538h-.628l.494.358-.224.582.538-.358.492.358-.224-.582.494-.358zm-2.959 0h-.582l-.224-.538-.18.538H5.92l.494.358-.224.582.493-.358.493.358-.18-.582.493-.358zm-2.958 0h-.628l-.178-.538-.18.538h-.627l.493.358-.18.582.494-.358.492.358-.179-.582.493-.358zm-2.958 0H.946l-.18-.538-.178.538H-.04l.493.358-.18.582.494-.358.492.358-.18-.582.494-.358zm-3.002 0h-.583l-.18-.538-.18.538h-.626l.492.358-.224.582.539-.358.492.358-.224-.582.494-.358zm11.877-2.869h-.583l-.18-.583-.179.583h-.628l.494.358-.224.583.538-.358.492.358-.224-.583.494-.358zm-2.959 0h-.582l-.224-.583-.18.583H5.92l.494.358-.224.583.493-.358.493.358-.18-.583.493-.358zm-2.958 0h-.628l-.178-.583-.18.583h-.627l.493.358-.18.583.494-.358.492.358-.179-.583.493-.358zm-2.958 0H.946l-.18-.583-.178.583H-.04l.493.358-.18.583.494-.358.492.358-.18-.583.494-.358zm-3.002 0h-.583l-.18-.583-.18.583h-.626l.492.358-.224.583.539-.358.492.358-.224-.583.494-.358zm11.877-2.914h-.583l-.18-.537-.179.537h-.628l.494.36-.224.627.538-.403.492.403-.224-.627.494-.36zm-2.959 0h-.582l-.224-.537-.18.537H5.92l.494.36-.224.627.493-.403.493.403-.18-.627.493-.36zm-2.958 0h-.628l-.178-.537-.18.537h-.627l.493.36-.18.627.494-.403.492.403-.179-.627.493-.36zm-2.958 0H.946l-.18-.537-.178.537H-.04l.493.36-.18.627.494-.403.492.403-.18-.627.494-.36zm-3.002 0h-.583l-.18-.537-.18.537h-.626l.492.36-.224.627.539-.403.492.403-.224-.627.494-.36zm13.446 7.217h-.584l-.223-.538-.18.538h-.582l.493.359-.225.582.494-.358.493.358-.18-.582.494-.359zm-2.958 0H8.43l-.18-.538-.18.538h-.627l.494.359-.18.582.494-.358.492.358-.179-.582.494-.359zm-3.004 0h-.582l-.18-.538-.18.538h-.626l.493.359-.224.582.537-.358.493.358-.18-.582.449-.359zm-2.958 0h-.583l-.179-.538-.224.538h-.583l.494.359-.225.582.538-.358.493.358-.224-.582.493-.359zm-2.958 0h-.583l-.224-.538-.179.538h-.582l.493.359-.225.582.493-.358.493.358-.179-.582.493-.359zm-2.957 0h-.628l-.18-.538-.18.538h-.627l.494.359-.18.582.493-.358.493.358-.18-.582.495-.359zm14.835-2.869h-.584l-.223-.583-.18.583h-.582l.493.36-.225.581.494-.358.493.358-.18-.581.494-.36zm-2.958 0H8.43l-.18-.583-.18.583h-.627l.494.36-.18.581.494-.358.492.358-.179-.581.494-.36zm-3.004 0h-.582l-.18-.583-.18.583h-.626l.493.36-.224.581.537-.358.493.358-.18-.581.449-.36zm-2.958 0h-.583l-.179-.583-.224.583h-.583l.494.36-.225.581.538-.358.493.358-.224-.581.493-.36zm-2.958 0h-.583l-.224-.583-.179.583h-.582l.493.36-.225.581.493-.358.493.358-.179-.581.493-.36zm-2.957 0h-.628l-.18-.583-.18.583h-.627l.494.36-.18.581.493-.358.493.358-.18-.581.495-.36zm14.835-2.868h-.584l-.223-.582-.18.582h-.582l.493.359-.225.582.494-.358.493.358-.18-.582.494-.359zm-2.958 0H8.43l-.18-.582-.18.582h-.627l.494.359-.18.582.494-.358.492.358-.179-.582.494-.359zm-3.004 0h-.582l-.18-.582-.18.582h-.626l.493.359-.224.582.537-.358.493.358-.18-.582.449-.359zm-2.958 0h-.583l-.179-.582-.224.582h-.583l.494.359-.225.582.538-.358.493.358-.224-.582.493-.359zm-2.958 0h-.583l-.224-.582-.179.582h-.582l.493.359-.225.582.493-.358.493.358-.179-.582.493-.359zm-2.957 0h-.628l-.18-.582-.18.582h-.627l.494.359-.18.582.493-.358.493.358-.18-.582.495-.359zM12.017.33h-.584l-.223-.537-.18.537h-.582l.493.36-.225.627.494-.404.493.359-.18-.582.494-.36zm-2.958 0H8.43l-.18-.537-.18.537h-.627l.494.36-.18.627.494-.404.492.359L8.565.69l.494-.36zm-3.004 0h-.582l-.18-.537-.18.537h-.626l.493.36-.224.627.537-.404.493.359-.18-.582.449-.36zm-2.958 0h-.583l-.179-.537-.224.537h-.583l.494.36-.225.627.538-.404.493.359L2.604.69l.493-.36zM.139.33h-.583l-.224-.537-.179.537h-.582l.493.36-.225.627.493-.404.493.359L-.354.69.14.33z" fill="#3B3A6D"/><path d="M12.868-.745h21.594V1.27H12.868V-.745zm0 3.99h21.594V5.26H12.868V3.244zm0 3.988h21.594V9.25H12.868V7.233zm0 3.989h21.594v2.016H12.868v-2.016zM-5.105 15.21h39.567v2.017H-5.105V15.21zm0 3.99h39.567v2.017H-5.105V19.2zm0 3.989h39.567v2.016H-5.105v-2.016z" fill="#CF2B38"/></g></svg>