<svg width="13" height="12" viewBox="0 0 13 12" fill="none" xmlns="http://www.w3.org/2000/svg"><path fill="#F0F0F0" d="M.5 0h12.15v12.15H.5z"/><path d="M.5 7.214h4.936v4.936h2.278V7.214h4.936V4.936H7.714V0H5.436v4.936H.5v2.278z" fill="#EB2E3D"/><path d="M10.156 7.924l2.494 2.493V7.924h-2.494zM8.424 7.924l4.226 4.226v-1.195L9.619 7.924H8.424zM11.524 12.15l-3.1-3.1v3.1h3.1z" fill="#0052B4"/><path d="M8.424 7.924l4.226 4.226v-1.195L9.619 7.924H8.424z" fill="#F0F0F0"/><path d="M8.424 7.924l4.226 4.226v-1.195L9.619 7.924H8.424z" fill="#EB2E3D"/><path d="M2.406 7.924L.5 9.829V7.924h1.906zM4.726 8.461v3.689H1.038L4.726 8.46z" fill="#0052B4"/><path d="M3.531 7.924L.5 10.955v1.195l4.226-4.226H3.531z" fill="#EB2E3D"/><path d="M2.994 4.226L.5 1.732v2.494h2.494zM4.726 4.226L.5 0v1.195l3.031 3.031h1.195zM1.626 0l3.1 3.1V0h-3.1z" fill="#0052B4"/><path d="M4.726 4.226L.5 0v1.195l3.031 3.031h1.195z" fill="#F0F0F0"/><path d="M4.726 4.226L.5 0v1.195l3.031 3.031h1.195z" fill="#EB2E3D"/><path d="M10.744 4.226L12.65 2.32v1.906h-1.906zM8.424 3.689V0h3.688L8.424 3.689z" fill="#0052B4"/><path d="M9.62 4.226l3.03-3.031V0L8.424 4.226h1.195z" fill="#EB2E3D"/></svg>