<svg width="181" height="29" viewBox="0 0 181 29" fill="none" xmlns="http://www.w3.org/2000/svg"><path fill-rule="evenodd" clip-rule="evenodd" d="M24.949 2.975C22.262 1.055 19.095 0 15.833 0 7.101 0 0 7.1 0 15.929c0 4.99 2.207 9.5 6.141 12.57.288.192.576.288.864.288a1.5 1.5 0 0 0 1.151-.575c.48-.672.384-1.536-.287-2.016a13.004 13.004 0 0 1-4.99-10.267c0-7.197 5.853-13.05 12.954-13.05 2.687 0 5.278.863 7.485 2.399.671.48 1.535.288 2.015-.288.48-.672.288-1.631-.384-2.015zm30.61 12.282c0-1.151-.383-2.11-1.055-2.878-.96-.96-2.495-1.44-4.894-1.44h-5.278l-3.838 14.01h3.934l1.152-4.318h1.727l1.92 4.318h4.317l-2.207-4.798c2.783-.672 4.222-2.59 4.222-4.894zm-9.212 2.4h2.207c1.824 0 2.975-.768 2.975-1.92 0-.384-.096-.672-.384-.96-.288-.287-.863-.48-1.727-.48h-2.111l-.96 3.36zm17.177-6.91L53.736 24.95h4.222l1.727-2.495h5.47l.384 2.495h4.126l-2.207-14.202h-3.934zm.767 4.606l-2.686 4.03h3.166l-.48-4.03zm13.339 6.333c-1.632 0-2.783-1.151-2.783-2.878 0-2.495 1.919-4.702 4.222-4.702 1.343 0 2.303.671 2.879 1.823l3.358-1.823c-.863-2.207-2.879-3.55-5.757-3.55-5.374 0-8.828 4.317-8.828 8.54 0 3.742 2.782 6.14 6.62 6.14 2.688 0 4.51-1.055 5.95-2.686l-2.687-2.303c-.863.96-1.727 1.44-2.974 1.44zm21.59-10.843l-.864 3.359h-7.484l-.576 2.11h6.717l-.864 3.071h-6.717l-.575 2.207h7.58l-.863 3.359h-11.42l3.743-14.106H99.22z" fill="#95BE4D"/><path fill-rule="evenodd" clip-rule="evenodd" d="M26.772 6.909l-14.585 8.348c-.288.192-.672.48-.864.768a5.792 5.792 0 0 0 0 8.252 5.792 5.792 0 0 0 8.252 0c.228-.228.396-.455.599-.73l.169-.23 8.348-14.489c.288-.48.192-1.151-.192-1.631a1.467 1.467 0 0 0-1.727-.288zm80.508 3.742c-4.893 0-8.444 4.03-8.444 8.349 0 3.55 2.687 6.333 6.717 6.333 4.894 0 8.444-4.03 8.444-8.348 0-3.647-2.686-6.334-6.717-6.334zm-1.343 11.131c-2.015 0-3.071-1.343-3.071-3.166 0-2.111 1.632-4.51 4.031-4.51 2.015 0 3.07 1.343 3.07 3.166.096 2.111-1.535 4.51-4.03 4.51zm11.899-10.843h4.606c2.207 0 3.742.384 4.702 1.44.767.767 1.151 1.727 1.151 2.878 0 3.455-2.879 5.662-7.005 5.662h-2.303l-1.055 4.03h-3.935l3.839-14.01zm3.454 7.005h-1.439l.959-3.742h1.44c.767 0 1.247.192 1.631.575.288.288.384.576.384.96.096 1.343-1.056 2.207-2.975 2.207zm8.732-7.005h12.379l-.864 3.359h-4.222l-2.879 10.65h-3.934l2.783-10.554h-4.222l.959-3.455zm10.268 14.01h3.934l3.742-14.106h-3.934L140.29 24.95zm7.772-5.95c0-4.317 3.551-8.348 8.445-8.348 3.934 0 6.717 2.687 6.717 6.334 0 4.318-3.551 8.348-8.445 8.348-4.03 0-6.717-2.783-6.717-6.333zm7.101 2.783c-2.015 0-3.07-1.343-3.07-3.166 0-2.111 1.631-4.51 4.03-4.51 2.015 0 3.07 1.343 3.07 3.166 0 2.111-1.535 4.51-4.03 4.51zm19.096-2.974l2.111-7.869v-.096h3.934l-3.742 14.106h-3.455l-3.838-8.156-2.207 8.156h-3.934l3.838-14.01h3.646l3.647 7.869zM17.656 22.262c.096-.096.288-.288.384-.48l5.853-10.171-10.267 5.853-.384.384c-1.247 1.248-1.247 3.167 0 4.414 1.248 1.248 3.167 1.248 4.414 0z" fill="#fff"/><path d="M25.14 28.787a1.5 1.5 0 0 1-1.15-.575c-.48-.672-.384-1.536.287-2.016 3.167-2.495 5.086-6.237 5.086-10.267 0-.576 0-1.152-.192-1.823-.096-.768.48-1.536 1.248-1.631.767-.096 1.535.48 1.63 1.247.097.864.193 1.535.193 2.303 0 4.99-2.207 9.5-6.142 12.57-.383.096-.671.192-.96.192z" fill="#D15364"/></svg>