<svg xmlns="http://www.w3.org/2000/svg" version="1.1" xmlns:xlink="http://www.w3.org/1999/xlink" xmlns:svgjs="http://svgjs.com/svgjs" width="1000" height="1000">
<rect width="1000" height="1000" rx="200" ry="200" fill="#fff"></rect>
<g transform="matrix(12.5,0,0,12.5,99.99991226196289,100.78775596618652)">
<svg width="64" height="64" viewBox="0 0 64 53" fill="none" xmlns="http://www.w3.org/2000/svg">
<style>
    path { fill: #003399; }
</style>
<path d="M11.1056 22.3937C14.89 20.9993 18.7608 19.8275 22.7616 18.5042C22.5297 15.7093 23.9365 13.8016 25.9523 11.7858C27.3003 10.4378 28.3824 9.81945 29.8417 8.91047C30.0736 8.76516 30.3148 8.63531 30.5652 8.524C39.5004 4.47688 42.7128 5.14779 47.4246 3.14742C49.592 2.22607 51.6696 0.989366 51.7005 0C51.8675 0.0432847 51.9664 0.0834777 52.1365 0.126762C52.3467 1.57062 53.1382 3.80906 49.3539 6.48653C45.6128 9.13617 43.7052 9.34023 40.2301 11.387C38.341 12.5 37.6546 12.936 35.914 14.2623C34.9184 15.0229 33.9692 15.8855 33.9631 17.3294C34.4917 17.5396 34.9586 17.7344 35.4347 17.9137C40.2301 19.7348 45.0409 21.5187 49.8146 23.3923C51.7036 24.1343 53.2773 25.2288 53.1042 27.5786C53.0857 27.8352 53.3794 28.2309 53.6391 28.3731C56.298 29.8325 57.6893 30.9455 61.452 32.9768C63.0566 34.0002 63.4029 33.7807 63.9192 35.0359C64.1573 35.6172 63.8079 36.9683 63.6595 37.7628C63.3009 39.689 62.7969 40.2765 62.1631 41.2844C61.183 42.8457 58.6756 43.2013 57.714 43.3342C56.1712 43.4981 53.9297 43.6805 53.67 43.7207C53.3794 43.7671 52.4766 44.6946 52.3003 44.8152C50.4113 46.0952 49.2673 46.392 47.0722 46.3363C44.8059 46.2776 42.5365 46.191 40.2734 46.2343C36.6189 46.3054 33.4498 47.607 30.7909 50.0403C29.9098 50.8472 28.5988 52.1303 27.8228 52.863C20.7303 42.7591 11.2942 34.5783 0 28.7658C2.72385 25.841 7.31822 23.7912 11.1056 22.3937ZM11.2602 32.3739C17.8952 38.1586 24.1065 43.9618 28.1691 51.4099C29.8139 49.4466 31.4464 47.5019 33.0603 45.5788C30.9764 45.1676 31.2887 45.1151 28.8987 44.438C26.0574 43.2322 23.0275 42.2892 22.7523 38.205C25.3432 42.5644 29.5171 42.8766 33.623 43.3682C37.6577 43.8536 41.6832 44.3854 45.718 44.877C47.6256 45.1089 49.2055 45.4119 50.4453 44.4874C50.7019 44.2803 51.2491 43.8165 51.2522 43.6187C47.3133 43.4362 50.3216 43.4424 46.8001 43.2786C47.5452 42.787 46.9639 43.0683 48.4789 42.2119L53.8864 42.0759C55.4941 42.1068 56.3196 42.0202 57.4574 41.8687C58.2087 41.7667 60.1813 41.5224 60.5801 41.0618C60.9913 40.5856 61.5756 39.3582 61.7488 38.7337C61.8168 38.4894 59.8906 36.4859 60.4781 36.52C64.856 36.7735 60.509 34.4577 58.7374 34.569C58.119 34.6092 57.5934 35.1719 56.7277 35.6635C58.3602 32.4388 58.3757 32.4141 55.3735 30.6147C54.0626 29.8294 52.6683 29.1708 51.3017 28.4504C51.7778 25.9183 51.5305 25.4143 48.9025 24.4435C44.3514 22.7616 39.7694 21.1508 35.2029 19.5091C35.1317 19.6575 35.0606 19.8059 34.9895 19.9512C36.8353 20.8261 38.6811 21.698 40.5269 22.573C40.496 22.6781 40.462 22.7832 40.431 22.8884C38.8419 22.4957 37.2527 22.103 36.1397 21.8279C34.1393 23.4356 32.3986 24.8331 30.6178 26.2646C30.7569 26.5305 31.0692 27.1241 31.3041 27.5724C28.2031 26.8396 25.1392 26.1162 21.7073 25.303C21.7722 29.4213 23.6056 34.4299 22.6719 33.1159C20.9375 30.6765 20.4675 27.8692 20.3933 25.0031C20.3562 23.5747 21.1384 23.247 22.5514 23.8592C23.414 24.2333 24.3013 24.5517 25.538 25.0371C24.6352 23.4356 23.9983 22.1989 23.2439 21.0364C23.0646 20.7581 22.4741 20.5417 22.1154 20.5943C20.8447 20.7767 19.1349 21.4012 17.9199 21.7908C13.0009 23.3676 8.92284 25.3401 4.46142 28.0269C6.41232 29.1987 8.06333 30.2746 9.85656 31.3536L11.2602 32.3739ZM31.7432 23.414C34.0867 22.1 34.2784 21.4754 33.1499 19.5802C31.9472 17.5612 32.0833 15.8824 33.96 14.1912C35.5306 12.7721 37.3918 11.6034 39.2562 10.5522C41.2287 9.43917 46.123 7.49444 47.5668 6.54527C49.6414 5.1818 51.3481 4.19862 51.7253 1.20888C47.3195 6.52672 43.5939 3.85853 31.0475 9.97404C30.5497 10.2152 30.0798 10.5089 29.6531 10.8521C28.3329 11.9157 27.0622 13.0689 26.0296 14.3767C23.686 17.3417 24.1653 21.3301 27.0344 23.853C28.2928 24.9598 29.7026 24.4033 30.8991 23.9674"></path>
<path d="M50.4177 28.2248C48.8718 27.996 47.4712 27.9403 46.1665 27.5662C43.9002 26.9169 41.7174 26.008 39.4574 25.3401C38.5422 25.0681 37.5157 25.1453 36.5078 25.4143C37.0922 25.5442 37.6796 25.6679 38.2639 25.8008C39.7047 26.1254 40.8517 26.6603 41.5845 28.1227C42.713 30.3735 44.5711 30.6642 46.6148 29.3192C47.0075 29.0595 47.7402 29.1677 48.2874 29.2636C49.453 29.4645 50.362 29.3996 50.4177 28.2248Z"></path>
<path d="M27.8242 37.1384C29.1722 40.3384 33.3925 41.8905 37.5726 40.8424C34.0109 40.2116 30.6192 39.7943 27.8242 37.1384Z"></path>
</svg>
</g>
</svg>
