<svg width="160" height="50" viewBox="0 0 160 50" fill="none" xmlns="http://www.w3.org/2000/svg">
<path d="M10.6545 33.3641C9.33542 33.3641 8.05669 33.2024 6.81829 32.8765C5.5799 32.5507 4.47198 32.0822 3.49693 31.4709C2.52187 30.8597 1.71999 30.12 1.09131 29.2519C0.460247 28.3838 0.0972686 27.4086 0 26.3217L4.92986 25.7295C5.00815 26.3217 5.22404 26.845 5.5799 27.2969C5.93339 27.7511 6.37228 28.1412 6.89421 28.4646C7.41614 28.7905 8.00212 29.0378 8.64979 29.2043C9.29983 29.3732 9.95936 29.4564 10.6284 29.4564C11.2381 29.4564 11.843 29.3875 12.4433 29.2495C13.0435 29.1116 13.5796 28.9142 14.0518 28.6573C14.5239 28.4004 14.9082 28.0793 15.2024 27.6964C15.4966 27.3111 15.646 26.883 15.646 26.4097C15.646 25.8175 15.4349 25.3299 15.0102 24.9446C14.5879 24.5593 14.0257 24.2335 13.3282 23.9671C12.6283 23.7007 11.8336 23.47 10.9368 23.2726C10.04 23.0752 9.12665 22.8588 8.19192 22.621C7.25719 22.3831 6.34144 22.1025 5.44704 21.7766C4.55027 21.4508 3.75552 21.0417 3.05566 20.5494C2.35817 20.0571 1.79591 19.4458 1.37362 18.7156C0.951335 17.9855 0.740191 17.0983 0.740191 16.0519C0.740191 15.0458 1.00116 14.1444 1.52308 13.3452C2.04501 12.5461 2.7425 11.8611 3.61792 11.2879C4.49334 10.7171 5.50161 10.2771 6.64274 9.97032C7.78149 9.66589 8.97244 9.51367 10.2132 9.51367C11.6295 9.51367 12.9249 9.67302 14.0945 9.98697C15.2641 10.3033 16.2937 10.7409 17.1786 11.3046C18.0635 11.8683 18.7871 12.5366 19.347 13.3167C19.9069 14.0968 20.277 14.9388 20.4549 15.8473L15.5559 16.4681C15.5155 16.4086 15.423 16.2017 15.2759 15.8473C15.1288 15.4929 14.8679 15.1219 14.493 14.7366C14.1182 14.3513 13.5963 14.0017 12.9296 13.6854C12.2606 13.369 11.3757 13.2121 10.2725 13.2121C9.50623 13.2121 8.8467 13.2858 8.29393 13.4332C7.74353 13.5807 7.2904 13.7734 6.93691 14.0112C6.58343 14.249 6.31772 14.5202 6.13979 14.8246C5.96185 15.1314 5.87408 15.4406 5.87408 15.7569C5.87408 16.3301 6.08996 16.8082 6.52411 17.1911C6.95589 17.5764 7.5229 17.9117 8.22039 18.1972C8.91787 18.4826 9.715 18.7442 10.6118 18.982C11.5062 19.2199 12.4219 19.4696 13.3566 19.736C14.2914 20.0023 15.2071 20.3044 16.1015 20.6374C16.9959 20.9727 17.793 21.3913 18.4929 21.8955C19.1904 22.3998 19.7574 23.011 20.1892 23.7293C20.6209 24.4499 20.8392 25.3133 20.8392 26.3193C20.8392 27.0495 20.6565 27.8296 20.2936 28.6573C19.9282 29.485 19.3398 30.2461 18.5237 30.9358C17.7076 31.6255 16.6543 32.2035 15.3661 32.6672C14.0755 33.131 12.5049 33.3641 10.6545 33.3641Z" fill="white"/>
<path d="M26.9219 33.1284V28.9258H30.611V33.1284H26.9219Z" fill="white"/>
<path d="M45.6907 9.60156H49.8828L59.1518 33.1262H54.1341L52.2457 28.1839L43.2733 28.2124L41.3848 33.1238H36.3672L45.6907 9.60156ZM44.0372 25.0777H51.3869L47.7571 14.5724L44.0372 25.0777Z" fill="white"/>
<path d="M64.7578 33.1284V28.9258H68.4469V33.1284H64.7578Z" fill="white"/>
<path d="M94.9572 16.8533L88.2267 29.4587H85.6883L78.9577 16.8223V33.1262H74.5V9.60156H79.6956L86.9575 24.3095L94.2479 9.60156H99.4126V33.1262H94.9549V16.8533H94.9572Z" fill="white"/>
<path d="M105.699 33.1284V28.9258H109.388V33.1284H105.699Z" fill="white"/>
<path d="M65.8695 49.4833V41.9961H63.0273V40.5405H70.2798V41.9961H67.4376V49.4833H65.8695Z" fill="white"/>
<path d="M74.4609 49.4827V40.5376H78.4371C79.5426 40.5376 80.3991 40.8349 81.0112 41.4319C81.5046 41.9432 81.7513 42.5854 81.7513 43.3607V43.3869C81.7513 44.0933 81.5592 44.676 81.1772 45.1303C80.7953 45.5869 80.2804 45.908 79.6352 46.0959L82.0432 49.4827H80.1832L77.9911 46.3646H76.0291V49.4827H74.4609ZM76.0267 44.9709H78.3208C78.8807 44.9709 79.3267 44.8353 79.6589 44.5618C79.991 44.2883 80.1571 43.9268 80.1571 43.4749V43.4487C80.1571 42.9707 79.9958 42.6044 79.6731 42.3499C79.3505 42.0954 78.895 41.967 78.309 41.967H76.0267V44.9709Z" fill="white"/>
<path d="M85.4609 49.4825L89.3873 40.4731H90.8392L94.7655 49.4825H93.1096L92.2057 47.3229H87.9875L87.0694 49.4825H85.4609ZM88.5593 45.9292H91.6315L90.0895 42.3521L88.5593 45.9292Z" fill="white"/>
<path d="M98.8438 49.4827V40.5376H102.17C103.555 40.5376 104.692 40.9609 105.579 41.81C106.466 42.6567 106.91 43.7151 106.91 44.9852V45.0113C106.91 46.2885 106.466 47.354 105.579 48.2055C104.692 49.057 103.555 49.4827 102.17 49.4827H98.8438ZM102.172 41.9694H100.414V48.0509H102.172C103.097 48.0509 103.847 47.7703 104.417 47.2066C104.986 46.6453 105.271 45.9199 105.271 45.0351V45.009C105.271 44.1242 104.986 43.394 104.417 42.8232C103.845 42.2548 103.097 41.9694 102.172 41.9694Z" fill="white"/>
<path d="M111.359 49.4827V40.5376H117.974V41.9432H112.928V44.2693H117.402V45.6868H112.928V48.0771H118.038V49.4827H111.359Z" fill="white"/>
<path d="M119.776 17.6452C122.654 16.5464 125.598 15.6236 128.637 14.5819C128.461 12.3795 129.531 10.8764 131.062 9.28759C132.087 8.22445 132.91 7.73926 134.02 7.02099C134.196 6.90683 134.381 6.80456 134.57 6.71656C141.365 3.52714 143.806 4.05752 147.391 2.48066C149.042 1.75525 150.622 0.782489 150.646 0C150.774 0.0332974 150.847 0.0665948 150.976 0.0998922C151.135 1.23914 151.737 3.00152 148.862 5.11115C146.017 7.19937 144.565 7.3611 141.925 8.97127C140.487 9.84651 139.965 10.1914 138.644 11.2379C137.887 11.8348 137.166 12.5151 137.161 13.6543C137.562 13.8208 137.918 13.973 138.278 14.1157C141.925 15.5499 145.583 16.9555 149.213 18.4325C150.648 19.0176 151.844 19.8785 151.713 21.7289C151.699 21.9311 151.922 22.245 152.121 22.3568C154.145 23.5056 155.201 24.3832 158.062 25.9839C159.281 26.7901 159.545 26.6165 159.939 27.6059C160.121 28.0626 159.853 29.1281 159.742 29.7536C159.469 31.2734 159.087 31.7324 158.605 32.5292C157.86 33.7588 155.953 34.0394 155.222 34.1441C154.048 34.2749 152.344 34.4176 152.148 34.4509C151.927 34.4866 151.239 35.2191 151.106 35.3119C149.671 36.3227 148.8 36.5558 147.13 36.5106C145.408 36.463 143.683 36.3964 141.96 36.4321C139.18 36.4868 136.772 37.5143 134.751 39.4312C134.079 40.0686 133.083 41.0771 132.495 41.655C127.1 33.6922 119.926 27.2492 111.34 22.6684C113.404 20.3614 116.896 18.7464 119.776 17.6452ZM119.895 25.5082C124.938 30.0652 129.662 34.6388 132.751 40.5063C134.003 38.9603 135.244 37.4263 136.471 35.9112C134.888 35.5878 135.126 35.545 133.306 35.0122C131.147 34.0632 128.841 33.3212 128.632 30.1008C130.601 33.5352 133.776 33.7826 136.898 34.1702C139.965 34.5508 143.028 34.9718 146.093 35.3594C147.543 35.5426 148.746 35.7804 149.687 35.0526C149.882 34.8885 150.299 34.5246 150.299 34.3677C147.303 34.2226 149.59 34.2273 146.916 34.0989C147.481 33.7136 147.04 33.9324 148.195 33.257L152.309 33.1499C153.531 33.1737 154.159 33.1071 155.025 32.9858C155.597 32.9073 157.096 32.7147 157.4 32.3508C157.713 31.975 158.157 31.0094 158.29 30.5171C158.342 30.3244 156.876 28.7452 157.324 28.7713C160.653 28.9711 157.348 27.1469 156 27.2349C155.531 27.2658 155.132 27.7106 154.473 28.0982C155.713 25.5581 155.725 25.5367 153.443 24.1192C152.446 23.5008 151.386 22.9823 150.347 22.4139C150.71 20.4184 150.522 20.0212 148.523 19.2554C145.061 17.9306 141.579 16.6606 138.105 15.3667C138.051 15.4833 137.996 15.5998 137.942 15.7164C139.346 16.4037 140.748 17.0935 142.153 17.7808C142.129 17.864 142.103 17.9473 142.079 18.0305C140.872 17.7213 139.664 17.4122 138.815 17.1957C137.294 18.461 135.97 19.5646 134.616 20.6919C134.722 20.9012 134.957 21.3674 135.137 21.7218C132.782 21.1438 130.45 20.573 127.84 19.9332C127.89 23.1774 129.285 27.1255 128.573 26.0909C127.254 24.1691 126.896 21.9572 126.841 19.6978C126.813 18.5728 127.408 18.3136 128.483 18.7964C129.138 19.0913 129.814 19.3434 130.753 19.7239C130.068 18.461 129.581 17.4883 129.01 16.5702C128.872 16.3514 128.424 16.1801 128.153 16.2206C127.188 16.3633 125.885 16.8556 124.962 17.1624C121.223 18.4039 118.12 19.957 114.73 22.0762C116.213 22.999 117.468 23.8481 118.832 24.6971L119.895 25.5082ZM135.467 18.4491C137.249 17.4145 137.396 16.9198 136.537 15.4286C135.624 13.8374 135.728 12.5151 137.152 11.1808C138.347 10.0629 139.761 9.14251 141.18 8.31245C142.679 7.43483 146.402 5.90315 147.5 5.15634C149.075 4.08131 150.375 3.30833 150.662 0.951354C147.313 5.13969 144.48 3.0372 134.938 7.8558C134.561 8.04607 134.203 8.27678 133.878 8.54791C132.874 9.38748 131.909 10.2936 131.123 11.3235C129.342 13.6614 129.707 16.8033 131.887 18.7892C132.843 19.6597 133.916 19.2221 134.827 18.8796" fill="white"/>
<path d="M149.67 22.2399C148.496 22.0615 147.43 22.0163 146.439 21.7214C144.716 21.2101 143.056 20.4942 141.336 19.9685C140.641 19.7545 139.86 19.8139 139.094 20.0256C139.54 20.1279 139.986 20.2254 140.429 20.33C141.523 20.5869 142.396 21.0079 142.954 22.1614C143.812 23.9357 145.224 24.164 146.778 23.1032C147.077 22.8987 147.632 22.9843 148.05 23.0581C148.937 23.215 149.627 23.1651 149.67 22.2399Z" fill="white"/>
<path d="M132.488 29.2632C133.513 31.7843 136.723 33.0068 139.9 32.1815C137.193 31.6844 134.614 31.3538 132.488 29.2632Z" fill="white"/>
</svg>
