<svg width="30" height="30" viewBox="0 0 30 30" fill="none" xmlns="http://www.w3.org/2000/svg"><path fill-rule="evenodd" clip-rule="evenodd" d="M7.11 21.958a.62.62 0 0 1 .002-.91l6.273-6.272-6.202-6.203a.62.62 0 0 1 .003-.91l.596-.596a.62.62 0 0 1 .91-.003l6.203 6.202 6.153-6.153c.146-.146.301-.216.466-.21a.649.649 0 0 1 .444.206l.631.631c.145.145.217.296.216.454 0 .159-.074.31-.22.456l-6.153 6.154 6.203 6.202a.621.621 0 0 1-.004.91l-.596.596a.621.621 0 0 1-.91.003l-6.202-6.202-6.273 6.273a.621.621 0 0 1-.91.003l-.63-.63z" fill="#4E6271"/></svg>