<svg width="15" height="58" viewBox="0 0 15 58" fill="none" xmlns="http://www.w3.org/2000/svg">
<path d="M7.19483 53.095C8.80481 54.8886 10.3801 56.5724 12.0074 58C11.9208 57.7987 11.817 57.6157 11.7304 57.4143C10.8995 56.2796 10.1897 54.9801 9.72225 53.4793C9.68763 53.461 9.67034 53.4611 9.63571 53.4428C6.24265 45.4813 11.2976 38.1238 13.4096 32.871C14.6734 29.723 15.4871 26.0443 14.6734 21.7981C13.7559 17.0945 10.8129 13.068 8.44121 9.1879C8.12961 8.71204 7.41986 7.41258 6.84858 6.7171C4.09605 3.34948 -0.595353 -1.07967 0.0624855 0.238096C4.92703 10.0664 7.57564 17.3873 7.03898 18.8515C6.65813 22.1459 5.3425 25.001 4.16531 27.5085C2.52072 30.9859 0.841496 34.4999 0.703004 39.2036C0.5472 44.9322 3.83639 49.3247 7.19483 53.095Z" fill="#006A1F"/>
</svg>
