<svg width="63" height="63" viewBox="0 0 63 63" xmlns="http://www.w3.org/2000/svg">
<path d="m31.41 62.82c17.347 0 31.41-14.063 31.41-31.41s-14.063-31.41-31.41-31.41-31.41 14.063-31.41 31.41 14.063 31.41 31.41 31.41z" fill="#039"/>
<path d="m40.5 61.47c9.41-2.84 21.83-12.34 22.31-29.14l-11.68-10.1-9.82-0.41-0.66 5.26-5.95-5.26-1.86 5.35-5.45-5.35-6.82 9.51-7.64-9.51 3.07 19.17 24.5 20.48z" fill="#002C72"/>
<path d="m16.001 40.99-7.7-19.16h4.62l4.97 13.4 4.97-13.4h4.51l-7.69 19.16h-3.68z" fill="#fff"/>
<path d="m30.512 40.85v-19.02h4.19v19.03h-4.19v-0.01z" fill="#fff"/>
<path d="m39.449 40.85v-19.02h7.77c2.25 0 4.02 0.6 5.33 1.81 1.3 1.21 1.96 2.79 1.96 4.77v0.05c0 2.12-0.73 3.77-2.17 4.93-1.45 1.17-3.29 1.75-5.52 1.75h-3.18v5.71h-4.19zm4.19-9.43h3.32c1.01 0 1.82-0.27 2.42-0.82 0.6-0.54 0.9-1.23 0.9-2.07v-0.05c0-0.92-0.3-1.63-0.9-2.13s-1.43-0.75-2.5-0.75h-3.23v5.82h-0.01z" fill="#fff"/>
</svg>
