<svg width="63" height="63" viewBox="0 0 63 63" xmlns="http://www.w3.org/2000/svg">
<path d="m31.41 62.82c17.347 0 31.41-14.063 31.41-31.41s-14.063-31.41-31.41-31.41-31.41 14.063-31.41 31.41 14.063 31.41 31.41 31.41z" fill="#039"/>
<path d="m40.499 61.47c9.41-2.84 16.96-9.98 20.36-19.14l-26.74-29.36-7.4 12.14 10.04 13.99-14.81 3.85 18.55 18.52z" fill="#002B70"/>
<path d="m34.419 17.37c1.76 0.31 3.43 0.85 4.96 1.81 0.36 0.22 0.52 0.38 0.33 0.83-0.57 1.4-1.09 2.83-1.61 4.25-0.17 0.46-0.32 0.52-0.75 0.24-1.81-1.18-3.77-1.89-5.98-1.65-1.16 0.13-1.98 0.69-2.18 1.54-0.23 0.94 0.13 1.69 1.17 2.38 1.02 0.66 2.14 1.11 3.25 1.58 1.93 0.83 3.78 1.81 5.13 3.48 3.26 4.04 1.83 10.08-2.94 12.44-0.12 0.06-0.23 0.14-0.35 0.16-1.3 0.2-1.55 1.02-1.4 2.19 0.1 0.74-0.01 1.5 0.02 2.24 0.02 0.48-0.16 0.62-0.63 0.61-1.57-0.03-3.15-0.02-4.72-0.02 0.01-0.04 0-0.07-0.04-0.09 0-1.18 0-2.36 0.01-3.54 0-0.33 0.01-0.59-0.44-0.64-1.83-0.2-3.51-0.84-5.1-1.75l0.01 0.02c-0.06-0.05-0.13-0.1-0.19-0.16l0.01 0.01c-0.05-0.14-0.17-0.17-0.3-0.2l0.02 0.03c-0.06-0.06-0.13-0.11-0.19-0.17-0.26-0.21-0.26-0.44-0.15-0.75 0.53-1.45 1.06-2.9 1.56-4.35 0.17-0.48 0.36-0.5 0.75-0.21 1.96 1.47 4.12 2.3 6.61 2.12 1.78-0.13 2.95-1.25 2.82-2.81-0.09-1.11-0.85-1.77-1.74-2.3-0.15-0.09-0.33-0.12-0.48-0.2-1.99-1.04-4.18-1.74-5.99-3.1-1.52-1.14-2.62-2.64-2.92-4.59-0.62-4.03 1.36-7.38 5.26-8.8 0.63-0.23 0.81-0.51 0.78-1.14-0.05-1 0-2.01-0.02-3.02-0.01-0.37 0.12-0.49 0.49-0.49 1.42 0.02 2.84 0.02 4.26 0 0.39 0 0.55 0.11 0.53 0.53-0.03 0.93-0.02 1.86 0 2.79 0.02 0.25-0.1 0.53 0.15 0.73z" fill="#FEFEFE"/>
</svg>
