<svg width="63" height="63" viewBox="0 0 63 63" xmlns="http://www.w3.org/2000/svg">
<path d="m31.13 62.26c17.193 0 31.13-13.937 31.13-31.13s-13.937-31.13-31.13-31.13-31.13 13.937-31.13 31.13 13.937 31.13 31.13 31.13z" fill="#039"/>
<path d="m42.239 60.08c9.77-3.42 19.06-13.46 20.03-27.23l-20.07-14.43-1.71 1.78-10.16-7.21-6.96 4.81-2.19 3.13 0.42 2.89-3.03-1.27-1.71 0.74 6.2 24.23 19.18 12.56z" fill="#002C72"/>
<path d="m45.619 35.45c1.16-1.06 2.12-2.32 2.84-3.72 0.11-0.22 0.37-0.3 0.58-0.2 0.15 0.08 0.25 0.24 0.24 0.41-0.45 10.02-8.94 17.78-18.96 17.33-10.01-0.45-17.77-8.94-17.32-18.96 0.42-9.39 7.94-16.9 17.33-17.33 0.24-0.01 0.44 0.18 0.45 0.42 0.01 0.17-0.09 0.33-0.24 0.41-6.54 3.35-9.12 11.37-5.76 17.91s11.37 9.12 17.91 5.76c1.06-0.54 2.05-1.22 2.93-2.03z" fill="#fff"/>
<path d="m34.1 19.63 4.07 1.92c0.11 0.05 0.24 0.03 0.33-0.05l3.28-3.08c0.12-0.11 0.31-0.11 0.42 0.01 0.06 0.07 0.09 0.15 0.08 0.24l-0.57 4.46c-0.02 0.12 0.05 0.24 0.15 0.3l3.94 2.16c0.15 0.08 0.2 0.26 0.12 0.41-0.04 0.08-0.12 0.13-0.21 0.15l-4.42 0.84c-0.12 0.02-0.22 0.12-0.24 0.24l-0.84 4.42c-0.03 0.16-0.19 0.27-0.35 0.24-0.09-0.02-0.16-0.07-0.21-0.15l-2.16-3.94c-0.06-0.11-0.18-0.17-0.3-0.15l-4.46 0.57c-0.16 0.02-0.31-0.09-0.33-0.26-0.01-0.09 0.02-0.18 0.08-0.24l3.08-3.28c0.08-0.09 0.11-0.22 0.05-0.33l-1.92-4.06c-0.07-0.15-0.01-0.33 0.14-0.4 0.1-0.06 0.19-0.06 0.27-0.02z" fill="#fff"/>
<path d="m49.281 31.94c-0.02 0.49-0.06 0.98-0.13 1.47-3.76 7.45-12.85 10.45-20.3 6.7-7.45-3.76-10.45-12.85-6.7-20.3 1.46-2.89 3.8-5.23 6.69-6.69 0.49-0.06 0.99-0.11 1.48-0.13 0.24-0.01 0.44 0.17 0.46 0.41 0.01 0.17-0.09 0.33-0.24 0.41-6.54 3.36-9.11 11.38-5.75 17.91s11.38 9.11 17.91 5.75c2.47-1.27 4.48-3.28 5.75-5.75 0.11-0.22 0.37-0.3 0.58-0.2 0.17 0.09 0.26 0.25 0.25 0.42z" fill="#fff"/>
</svg>
