<svg width="63" height="63" viewBox="0 0 63 63" xmlns="http://www.w3.org/2000/svg">
<path d="m31.41 62.82c17.347 0 31.41-14.063 31.41-31.41s-14.063-31.41-31.41-31.41-31.41 14.063-31.41 31.41 14.063 31.41 31.41 31.41z" fill="#039"/>
<path d="m37.62 62.209c13.728-2.7778 22.175-13.571 24.38-23.709l-18.105-20.05-17.176 6.6595 10.04 13.99-17.76 4.9001 18.62 18.209z" fill="#002B70"/>
<path d="m31.002 48.4c9.6099 0 17.4-7.7903 17.4-17.4s-7.7903-17.4-17.4-17.4-17.4 7.7903-17.4 17.4 7.7903 17.4 17.4 17.4z" fill="#039"/>
<path d="m31 13c-9.9408 0-18 8.0592-18 18s8.0592 18 18 18 18-8.0592 18-18c-0.0112-9.9366-8.0634-17.989-18-18zm0.5998 34.764v-6.5637h-1.2003v6.5637c-2.9018-0.315-5.4597-2.8926-7.098-6.738 5.0407-1.3711 10.356-1.3711 15.396 0-1.6376 3.8454-4.1962 6.423-7.098 6.738zm-0.5998-8.9641c-2.7492 0-5.4858 0.3712-8.1359 1.1025-0.9914-2.8625-1.4864-5.8732-1.4639-8.903-0.0225-3.0284 0.4725-6.0384 1.4632-8.9002 2.6501 0.7306 5.3874 1.1011 8.1366 1.1004 2.7492 0 5.4858-0.3712 8.1359-1.1025 0.9914 2.8625 1.4864 5.8732 1.4639 8.903 0.0225 3.0284-0.4725 6.0384-1.4632 8.9002-2.6501-0.7306-5.3874-1.1004-8.1366-1.1004zm-10.791-8.3996h-5.9941c0.1273-3.69 1.4716-7.2344 3.825-10.08 1.1995 0.559 2.4335 1.0407 3.6956 1.44-0.9724 2.7788-1.4878 5.6961-1.5265 8.64zm0 1.1996c0.0387 2.9432 0.5541 5.8612 1.5265 8.64-1.2614 0.3993-2.4961 0.881-3.6956 1.44-2.3534-2.8456-3.6977-6.39-3.825-10.08h5.9941zm10.191-17.364v6.5637h1.2003v-6.5637c2.9018 0.315 5.4597 2.8927 7.098 6.738-2.5101 0.6807-5.0983 1.0259-7.6985 1.0259s-5.1884-0.3452-7.6978-1.0259c1.6376-3.8453 4.1962-6.423 7.098-6.738zm11.391 17.364h5.9941c-0.1273 3.69-1.4716 7.2344-3.825 10.08-1.1995-0.559-2.4335-1.0407-3.6956-1.44 0.9724-2.7788 1.4878-5.696 1.5265-8.64zm0-1.1996c-0.0387-2.9432-0.5541-5.8612-1.5265-8.64 1.2614-0.3993 2.4961-0.881 3.6956-1.44 2.3534 2.8456 3.6977 6.39 3.825 10.08h-5.9941zm1.3289-11.019c-1.0716 0.4858-2.1706 0.9063-3.2928 1.26-0.8648-2.1952-2.231-4.1569-3.9888-5.7298 2.7717 0.8381 5.2798 2.378 7.2816 4.4698zm-16.956-4.4691c-1.7578 1.5729-3.124 3.5353-3.9888 5.7298-1.1222-0.3537-2.2212-0.7742-3.2928-1.26 2.0018-2.0918 4.5099-3.631 7.2816-4.4698zm-7.2837 27.706c1.0716-0.4858 2.1706-0.9063 3.2928-1.26 0.8648 2.1952 2.231 4.1569 3.9888 5.7298-2.7717-0.8381-5.2798-2.378-7.2816-4.4698zm16.956 4.4691c1.7578-1.5729 3.124-3.5353 3.9888-5.7298 1.1222 0.3537 2.2212 0.7742 3.2928 1.26-2.0018 2.0918-4.5099 3.631-7.2816 4.4698z" fill="#fff"/>
<path d="m31.001 41.2c5.6334 0 10.2-4.5668 10.2-10.2 0-5.6334-4.5669-10.2-10.2-10.2s-10.2 4.5668-10.2 10.2c0 5.6335 4.5668 10.2 10.2 10.2z" fill="#fff"/>
<path d="m34.6 26.8v1.2003c0 0.663-0.5372 1.2002-1.2003 1.2002h-4.8002v0.4148c0 0.2996-0.1737 0.5717-0.4444 0.699-0.2714 0.1272-0.5913 0.0857-0.8212-0.1055l-2.6578-2.2142c-0.1744-0.1483-0.2743-0.3656-0.2743-0.5941s0.1006-0.4458 0.2743-0.5941l2.6578-2.2142c0.2299-0.1912 0.5505-0.2327 0.8212-0.1054 0.2714 0.1272 0.4444 0.3993 0.4444 0.6989v0.4148h4.8002c0.6631-7e-4 1.2003 0.5365 1.2003 1.1995z" clip-rule="evenodd" fill="#039" fill-rule="evenodd"/>
<path d="m27.398 34v1.2002c0 0.6631 0.5372 1.2003 1.2003 1.2003h4.8002v0.4148c0 0.2995 0.1737 0.5716 0.4444 0.6989 0.2714 0.1273 0.5913 0.0858 0.8212-0.1055l2.6579-2.2141c0.1743-0.1484 0.2742-0.3656 0.2742-0.5941 0-0.2286-0.1006-0.4458-0.2742-0.5942l-2.6579-2.2141c-0.2299-0.1913-0.5505-0.2328-0.8212-0.1055-0.2714 0.1273-0.4444 0.3994-0.4444 0.6989v0.4149h-4.8002c-0.6631-7e-4 -1.2003 0.5364-1.2003 1.1995z" clip-rule="evenodd" fill="#039" fill-rule="evenodd"/>
</svg>
