<svg width="72" height="72" viewBox="0 0 72 72" xmlns="http://www.w3.org/2000/svg">
<path d="m40.481 28.28c5.1467-13.682-5.0295-28.28-19.574-28.28-11.529 0-20.906 9.3876-20.906 20.917 0 14.62 14.673 24.742 28.291 19.574 2.4934-5.3597 6.8302-9.7072 12.19-12.211zm-17.454 4.0385v2.3868c0 1.1722-0.9484 2.1205-2.1205 2.1205s-2.1204-0.9483-2.1204-2.1205v-2.3868c-0.8845 0-2.8984 0.1385-5.168-1.4385-0.959-0.6713-1.1935-1.982-0.5328-2.9516 0.6713-0.959 1.9819-1.1935 2.9516-0.5328 0.5754 0.4049 1.3 0.682 2.0246 0.682h5.4343c1.364 0 2.5148-1.1082 2.5148-2.5254 0-1.3853-1.1295-2.5254-2.5148-2.5254h-5.1573c-3.7188 0-6.7556-3.0262-6.7556-6.7557 0-3.3991 2.5253-6.7556 7.2138-6.7556v-2.3656c0-1.1721 0.9484-2.1205 2.1205-2.1205s2.1204 0.94835 2.1204 2.1205v2.3762c2.4935 0 4.4967 0.93768 5.9672 2.5147 0.7992 0.8525 0.7565 2.1951-0.0959 2.9943-0.8418 0.7885-2.1738 0.7672-2.9942-0.0959-0.6927-0.7353-1.641-1.1721-2.6-1.1828h-4.9868c-1.3959 0-2.5148 1.1295-2.5148 2.5254 0 1.3852 1.1295 2.5254 2.5148 2.5254h4.8376c4.3795 0 7.0753 3.2606 7.0753 6.7556 0 3.4631-2.5999 6.7557-7.2138 6.7557z" fill="#039"/>
<path d="m51.094 30.166c-11.519 0-20.906 9.3663-20.906 20.917 0 11.54 9.3769 20.917 20.906 20.917s20.906-9.3876 20.906-20.917c0-11.529-9.3769-20.917-20.906-20.917zm9.4302 32.18c-0.3516 1.1082-1.545 1.7369-2.6532 1.3746-4.4221-1.4065-8.2475-1.1295-12.307 0.0213-1.8115 0.5115-3.3353-1.4278-2.4295-3.0688 1.236-2.2057 2.0352-4.5926 2.3868-7.054h-1.8327c-1.1722 0-2.1205-0.9484-2.1205-2.1205s0.9483-2.1204 2.1205-2.1204h1.9819c-0.0426-0.5861-0.0639-0.7886-0.2664-2.5787-0.4901-4.5286 3.0475-8.4712 7.5868-8.4712 2.1844 0 4.2623 0.9377 5.7114 2.568 0.7779 0.8738 0.6926 2.2164-0.1811 2.9836-0.8844 0.7778-2.2164 0.6926-2.9942-0.1812-2.1631-2.4401-6.2762-0.6926-5.9139 2.6213 0.2024 1.8115 0.2451 2.1951 0.2983 3.0475h2.9623c1.1721 0 2.1205 0.9484 2.1205 2.1205s-0.9484 2.1204-2.1205 2.1204h-3.0901c-0.2025 1.7476-0.5967 3.4631-1.1721 5.1254 3.6442-0.4795 7.2564-0.1066 10.528 0.9377 1.1189 0.3729 1.7369 1.5664 1.3852 2.6745z" fill="#039"/>
<path d="m52.553 6.745c4.177 0 8.5351 3.1541 8.5351 8.9081v1.9713l-1.8967-1.8967c-0.8204-0.8205-2.163-0.8312-2.9942 0-0.8311 0.8311-0.8311 2.1737 0 2.9942l5.509 5.509c0.8418 0.8311 2.1737 0.8204 2.9942 0l5.509-5.509c0.8311-0.8311 0.8311-2.1737 0-2.9942-0.8312-0.8312-2.1631-0.8312-2.9943 0l-1.8967 1.8967v-1.9713c0-7.704-5.8499-13.149-12.776-13.149-1.1721 0-2.1204 0.94835-2.1204 2.1205 0.0213 1.1721 0.9696 2.1205 2.1311 2.1205z" fill="#039"/>
<path d="m19.447 65.266c-4.177 0-8.5351-3.1541-8.5351-8.9081v-1.9713l1.8967 1.8967c0.8204 0.8205 2.1631 0.8311 2.9942 0 0.8311-0.8312 0.8311-2.1738 0-2.9943l-5.509-5.5089c-0.85241-0.8525-2.1844-0.8098-2.9942 0l-5.5196 5.4983c-0.83114 0.8311-0.83114 2.1737 0 2.9942 0.83114 0.8312 2.1631 0.8312 2.9942 0l1.8967-1.8967v1.9713c0 7.704 5.85 13.149 12.776 13.149 1.1721 0 2.1205-0.9483 2.1205-2.1204 0-1.1615-0.9484-2.1098-2.1205-2.1098z" fill="#039"/>
</svg>
