<svg width="77" height="72" viewBox="0 0 77 72" xmlns="http://www.w3.org/2000/svg">
<path d="m21.891 15.051c2.51-6.275 6.5539-11.388 11.825-14.818-7.0467 0.99471-13.545 4.36-18.435 9.538 1.9523 2.0545 4.1741 3.8301 6.6097 5.2803z" fill="#039"/>
<path d="m20.516 30.706h16.798v-9.6403c-5.0758-0.1116-10.068-1.3852-14.577-3.7185-1.3851 4.0439-2.1474 8.5991-2.2218 13.359z" fill="#039"/>
<path d="m21.325 16.585c-2.6216-1.5246-5.0107-3.4211-7.1117-5.615-4.7318 5.4941-7.3999 12.476-7.53 19.727h12.243c0.0744-5.0758 0.9018-9.8448 2.3985-14.112z" fill="#039"/>
<path d="m37.325 0c-6.3958 3.17-11.221 8.72-14.028 15.832 4.3321 2.2776 9.129 3.5233 14.028 3.6442v-19.476z" fill="#039"/>
<path d="m11.909 48.332c-2.0917 0-3.7836 1.6919-3.7836 3.7836s1.6919 3.7836 3.7836 3.7836c2.0917 0 3.7836-1.6919 3.7836-3.7836s-1.6919-3.7836-3.7836-3.7836z" fill="#039"/>
<path d="m53.474 17.319c-0.5671 0.2975-1.1528 0.5671-1.7384 0.8367-4.0346 1.8314-8.3946 2.8261-12.829 2.919v9.6403h16.798c-0.0558-4.9363-0.8274-9.3521-2.2311-13.396z" fill="#039"/>
<path d="m54.318 14.995c2.4171-1.4595 4.6203-3.2537 6.554-5.3175-4.8806-5.1223-11.351-8.4596-18.36-9.4544 5.2524 3.421 9.287 8.5247 11.806 14.772z" fill="#039"/>
<path d="m52.925 15.794c-2.8075-7.093-7.6323-12.634-14.019-15.794v19.485c4.202-0.093 8.3388-1.0319 12.169-2.7703 0.6322-0.2882 1.2457-0.595 1.85-0.9204z" fill="#039"/>
<path d="m57.304 30.706h12.243c-0.1394-7.2883-2.8354-14.298-7.6044-19.81-2.0731 2.1939-4.4529 4.0997-7.0559 5.6336 1.5153 4.2763 2.3427 9.0918 2.4171 14.177z" fill="#039"/>
<path d="m38.189 39.649c-6.8886 0-12.466 5.5778-12.466 12.466s5.5777 12.466 12.466 12.466 12.466-5.5778 12.466-12.466c-0.0093-6.8793-5.5871-12.457-12.466-12.466zm-0.0186 11.611c2.0545 0.0093 3.7093 1.6734 3.7 3.7279-0.0093 1.757-1.2457 3.263-2.9563 3.6255v1.0319c0 0.4369-0.3532 0.7902-0.7902 0.7902-0.4369 0-0.7901-0.3533-0.7901-0.7902v-1.0319c-1.6827-0.409-2.8726-1.9057-2.8819-3.6348 0.0186-0.4463 0.3812-0.7995 0.8274-0.7902 0.4369 0 0.7902 0.3532 0.7902 0.7902 0 1.1713 0.9482 2.1195 2.1195 2.1288h0.0093 0.0093c1.1713-0.0093 2.1196-0.9668 2.1196-2.1474-0.0093-1.1714-0.9668-2.1196-2.1475-2.1196-2.0545 0-3.7278-1.664-3.7371-3.7185 0.0186-1.7291 1.2085-3.2258 2.8819-3.6349v-0.9017c0-0.4369 0.3532-0.7902 0.7902-0.7902 0.4369 0 0.7901 0.3533 0.7901 0.7902v0.9017c1.7292 0.344 2.9749 1.8686 2.9656 3.6349 0.0186 0.4183-0.3068 0.7716-0.7344 0.7902h-0.0279c-0.437 0-0.7902-0.3533-0.7902-0.7902 0-1.1806-0.9482-2.1382-2.1289-2.1382-1.1806 0-2.1381 0.9483-2.1381 2.1289s0.9482 2.1381 2.1195 2.1474z" fill="#039"/>
<path d="m8.9708 36.739-4.3693 4.2949v22.32l4.2205 4.0439h58.585l4.3693-4.0532v-22.311l-4.2949-4.2856h-58.511v-0.0093zm2.761 3.0213h13.768c0.4369 0 0.7902 0.3533 0.7902 0.7902s-0.3533 0.7902-0.7902 0.7902h-13.768c-0.4369 0-0.7901-0.3533-0.7901-0.7902s0.3532-0.7902 0.7901-0.7902zm-3.5419 0h0.47411c0.43693 0 0.79019 0.3533 0.79019 0.7902s-0.35326 0.7902-0.79019 0.7902h-0.47411c-0.43692 0-0.79018-0.3533-0.79018-0.7902s0.35326-0.7902 0.79018-0.7902zm3.7186 17.728c-2.9656 0-5.3733-2.4078-5.3733-5.3733s2.4078-5.3733 5.3733-5.3733c2.9655 0 5.3732 2.4078 5.3732 5.3733s-2.4077 5.3733-5.3732 5.3733zm26.281 8.6827c-7.7625 0-14.056-6.2936-14.056-14.056s6.2936-14.056 14.056-14.056c7.7624 0 14.056 6.2936 14.056 14.056-0.0093 7.7624-6.2936 14.047-14.056 14.056zm31.654-14.056c0 2.9655-2.4077 5.3733-5.3732 5.3733-2.9656 0-5.3733-2.4078-5.3733-5.3733s2.4077-5.3733 5.3733-5.3733c2.9655 0.0093 5.3639 2.4078 5.3732 5.3733z" fill="#039"/>
<path d="m72.065 32.296h-68.365c-2.0266-0.0186-3.6813 1.6175-3.6999 3.6441v0.0744l0.46482 32.333c0.037185 2.0173 1.6733 3.6349 3.6906 3.6534h68.374c2.0545-0.0093 3.7092-1.6826 3.6999-3.7371v-0.0279l-0.4648-32.323c-0.0465-2.008-1.6826-3.6162-3.6999-3.6162zm1.3108 31.394c0 0.2139-0.0837 0.4184-0.2417 0.5671l-4.862 4.5366c-0.1488 0.1302-0.344 0.1952-0.5392 0.1859h-59.227c-0.20452 0.0093-0.39974-0.0557-0.54848-0.1952l-4.7039-4.5273c-0.14874-0.1487-0.23241-0.3532-0.23241-0.5671v-22.99c0-0.2138 0.08367-0.4276 0.23241-0.5763l4.8527-4.7226c0.14874-0.1487 0.34397-0.2324 0.54848-0.2417h59.162c0.2138 0.0093 0.409 0.093 0.5577 0.251l4.769 4.7226c0.1488 0.1487 0.2325 0.3625 0.2325 0.5763v22.98z" fill="#039"/>
<path d="m60.688 52.115c0 2.0917 1.6919 3.7836 3.7836 3.7836s3.7836-1.6919 3.7836-3.7836-1.6919-3.7836-3.7836-3.7836-3.7836 1.6919-3.7836 3.7836z" fill="#039"/>
</svg>
