<svg width="64" height="84" viewBox="0 0 64 84" fill="none" xmlns="http://www.w3.org/2000/svg">
<path d="M7.38199 84H56.6026C60.6747 84 63.9846 80.6901 63.9846 76.618V24.6103H46.7563C42.6842 24.6103 39.3743 21.3004 39.3743 17.2283V0H7.38199C3.30993 0 0 3.30993 0 7.38199V76.618C0 80.6901 3.30993 84 7.38199 84ZM17.2283 34.618H46.7619C48.1248 34.618 49.2207 35.7195 49.2207 37.0768C49.2207 38.4342 48.1192 39.5356 46.7619 39.5356H17.2283C15.8654 39.5356 14.7695 38.4342 14.7695 37.0768C14.7695 35.7195 15.8654 34.618 17.2283 34.618ZM17.2283 44.4588H46.7619C48.1248 44.4588 49.2207 45.5603 49.2207 46.9176C49.2207 48.275 48.1192 49.3764 46.7619 49.3764H17.2283C15.8654 49.3764 14.7695 48.275 14.7695 46.9176C14.7695 45.5603 15.8654 44.4588 17.2283 44.4588ZM17.2283 54.3052H46.7619C48.1248 54.3052 49.2207 55.4066 49.2207 56.764C49.2207 58.1213 48.1192 59.2228 46.7619 59.2228H17.2283C15.8654 59.2228 14.7695 58.1213 14.7695 56.764C14.7695 55.4066 15.8654 54.3052 17.2283 54.3052ZM17.2283 64.146H36.9155C38.2784 64.146 39.3743 65.2474 39.3743 66.6048C39.3743 67.9621 38.2729 69.0636 36.9155 69.0636H17.2283C15.8654 69.0636 14.7695 67.9621 14.7695 66.6048C14.7695 65.2474 15.8654 64.146 17.2283 64.146Z" fill="#003399"/>
<path d="M46.7564 19.6873H62.5383L44.292 1.44092V17.2229C44.2976 18.5858 45.399 19.6873 46.7564 19.6873Z" fill="#003399"/>
</svg>
