<svg width="94" height="72" viewBox="0 0 94 72" fill="none" xmlns="http://www.w3.org/2000/svg">
<path d="M28.7996 28.7999C32.7761 28.7999 35.9996 25.5764 35.9996 21.5999C35.9996 17.6234 32.7761 14.3999 28.7996 14.3999C24.8232 14.3999 21.5996 17.6234 21.5996 21.5999C21.5996 25.5764 24.8232 28.7999 28.7996 28.7999Z" fill="#003399"/>
<path d="M46.7843 51.3089C46.3613 40.8059 38.4593 32.3999 28.8023 32.3999C19.1543 32.3999 11.2433 40.7969 10.8203 51.3089C13.0613 52.8929 20.4323 57.5999 28.8023 57.5999C37.1813 57.5999 44.5433 52.8929 46.7843 51.3089Z" fill="#003399"/>
<path d="M5.4 72H88.2C91.179 72 93.6 69.579 93.6 66.6V5.4C93.6 2.421 91.179 0 88.2 0H5.4C2.421 0 0 2.421 0 5.4V66.6C0.009 69.579 2.421 72 5.4 72ZM59.4 18H84.6C85.59 18 86.4 18.81 86.4 19.8C86.4 20.79 85.59 21.6 84.6 21.6H59.4C58.41 21.6 57.6 20.79 57.6 19.8C57.6 18.81 58.41 18 59.4 18ZM59.4 28.8H84.6C85.59 28.8 86.4 29.61 86.4 30.6C86.4 31.59 85.59 32.4 84.6 32.4H59.4C58.41 32.4 57.6 31.59 57.6 30.6C57.6 29.61 58.41 28.8 59.4 28.8ZM59.4 39.6H84.6C85.59 39.6 86.4 40.41 86.4 41.4C86.4 42.39 85.59 43.2 84.6 43.2H59.4C58.41 43.2 57.6 42.39 57.6 41.4C57.6 40.41 58.41 39.6 59.4 39.6ZM59.4 50.4H84.6C85.59 50.4 86.4 51.21 86.4 52.2C86.4 53.19 85.59 54 84.6 54H59.4C58.41 54 57.6 53.19 57.6 52.2C57.6 51.21 58.41 50.4 59.4 50.4ZM22.005 29.988C17.37 26.235 16.65 19.431 20.403 14.796C24.156 10.161 30.96 9.441 35.595 13.194C40.23 16.947 40.95 23.751 37.197 28.386C36.72 28.971 36.18 29.511 35.595 29.988C44.19 33.084 50.4 41.868 50.4 52.2C50.4 52.749 50.148 53.262 49.725 53.604C49.338 53.91 40.104 61.2 28.8 61.2C17.496 61.2 8.262 53.919 7.875 53.604C7.452 53.262 7.2 52.749 7.2 52.2C7.2 41.868 13.419 33.084 22.005 29.988Z" fill="#003399"/>
</svg>
