<svg width="67" height="73" viewBox="0 0 67 73" xmlns="http://www.w3.org/2000/svg">
<path d="m45.336 14.603c2.3769 1.3441 4.5738 2.991 6.5378 4.8929h3.8326c-2.9962-2.4013-6.4371-4.1863-10.122-5.2648-0.0847 0.1222-0.1694 0.2444-0.2488 0.3719z" fill="#039"/>
<path d="m56.886 25.707c0.8629 1.3919 1.6146 2.8475 2.2552 4.3563v-0.2444h4.7749c-1.3711-2.8528-3.1868-5.4666-5.3837-7.7404h-4.2668c0.9582 1.1475 1.8317 2.3588 2.6204 3.6285z" fill="#039"/>
<path d="m44.229 11.835c-0.7253-0.6694-1.334-1.4556-1.8052-2.3269-0.4605 0.8713-1.0746 1.6575-1.8104 2.3163 0.7464 0.8075 1.3552 1.7319 1.8104 2.7306 0.4553-0.9934 1.0641-1.9125 1.8052-2.72z" fill="#039"/>
<path d="m61.609 40.141h5.1349c-0.2276-2.6457-0.8099-5.2488-1.7311-7.7404h-4.9814c0.8365 2.5022 1.3711 5.1001 1.5776 7.7404z" fill="#039"/>
<path d="m60.777 50.457h5.0555c0.6776-2.5234 1.0217-5.1266 1.0217-7.7404h-5.1402c0 2.6085-0.3176 5.2117-0.937 7.7404z" fill="#039"/>
<path d="m56.188 60.78h4.542c1.8052-2.3535 3.2451-4.962 4.2826-7.7404h-4.9814c-0.9316 2.7412-2.2233 5.3444-3.8432 7.7404z" fill="#039"/>
<path d="m59.142 42.717c0.0212-10.646-5.6643-20.485-14.881-25.755-0.2699 0.8659-0.4552 1.7584-0.5505 2.6669-0.0741 0.7066-0.7041 1.2219-1.4081 1.1528-0.6035-0.0637-1.0852-0.5419-1.1488-1.1528-0.0847-0.8075-0.397-2.975-1.4981-4.8132-3.2345-1.1741-6.6436-1.7744-10.084-1.7691-16.305 0-29.571 13.313-29.571 29.676-0.021175 7.4535 2.7686 14.636 7.8188 20.103 0.79936-1.2962 1.0799-2.8634 1.1858-4.691 0.04235-0.7118 0.64584-1.2537 1.3552-1.2165 0.6882 0.0372 1.2176 0.6109 1.2123 1.3015-0.0424 4.3882 2.451 6.1679 3.2133 6.6089 0.6141 0.3559 0.8258 1.1422 0.4711 1.7637-0.0953 0.1647-0.2276 0.3082-0.3864 0.4197-0.36 0.2497-0.6935 0.5472-0.9847 0.8713 4.7009 2.9591 10.138 4.5263 15.685 4.5157 16.305-0.0053 29.571-13.319 29.571-29.681zm-51.423 0c0 2.0613 0.28586 4.1119 0.85229 6.0935 0.19586 0.6853-0.19586 1.3972-0.87875 1.5991-0.68289 0.1965-1.3922-0.1966-1.5934-0.8819-0.63524-2.2153-0.95815-4.5051-0.95286-6.8107 0-13.515 10.958-24.512 24.425-24.512 1.3657 0 2.7262 0.1116 4.0708 0.34 0.6988 0.1116 1.1752 0.7757 1.0641 1.4769-0.1112 0.7013-0.7729 1.1794-1.4717 1.0678-0.0053 0-0.0106 0-0.0159-0.0053-1.2016-0.2018-2.4245-0.3028-3.642-0.3028-12.054 0.0053-21.858 9.8442-21.858 21.936zm21.853 24.518c-3.261 0.0053-6.4954-0.6482-9.5023-1.9232-0.6564-0.2762-0.9581-1.0359-0.6829-1.6894 0.2753-0.6587 1.0323-0.9616 1.6834-0.6853 2.6892 1.1422 5.5796 1.7266 8.4965 1.7213 12.048 0 21.858-9.8389 21.858-21.936 0.0052-4.3404-1.2758-8.5798-3.6792-12.182-0.397-0.5897-0.2382-1.3919 0.3547-1.7903 0.5876-0.3985 1.3869-0.2391 1.784 0.3559 2.6892 4.0269 4.1238 8.771 4.1132 13.621 0.0053 13.51-10.953 24.507-24.425 24.507zm12.303-15.523c-0.0318 0.0159-0.0636 0.0318-0.0953 0.0425-0.7623 0.4409-1.5299 0.8872-2.2975 1.3281-0.0318 0.0106-0.0582 0.0266-0.0794 0.0478-0.4711 0.1913-0.884 0.4835-1.3075 0.7597-0.0636 0.0372-0.1271 0.0691-0.1853 0.1063-1.9852 1.0572-3.9068 2.2312-5.8443 3.3734-1.3552 0.7969-1.3446 0.7969-2.6892 0.0213-0.9476-0.5472-1.9216-1.0466-2.8533-1.6097-1.027-0.6163-2.0646-1.206-3.0863-1.8329-0.4341-0.2709-0.8999-0.4887-1.3499-0.7278-0.0529-0.1222-0.1853-0.1169-0.2752-0.1806-0.6565-0.4888-1.4135-0.8128-2.1175-1.2166-0.09-0.1115-0.2065-0.17-0.3441-0.2019-0.3918-0.2337-0.7729-0.4993-1.1805-0.7012-0.3388-0.17-0.4553-0.3825-0.4553-0.7703 0.0159-4.6698 0.0106-9.3342 0.0159-14.004 0-0.1965 0.0265-0.3931 0.0423-0.5896 2.0805-1.1635 4.1397-2.3641 6.1937-3.5754 1.9216-1.1369 3.9068-2.1675 5.786-3.3682 0.7835-0.4993 1.3023-0.3825 1.9905 0.0691 1.0852 0.7119 2.2234 1.3334 3.3403 1.9922 1.6358 0.9669 3.298 1.8913 4.9338 2.8635 1.064 0.6322 2.1281 1.275 3.2397 1.8328 0.2912 0.1488 0.4288 0.3294 0.4235 0.6853-0.0158 4.7282-0.0158 9.4564-0.0106 14.179 0 0.2284-0.037 0.3931-0.2541 0.5206-0.5134 0.3028-1.0216 0.6375-1.5404 0.9563zm-0.9106-6.8904c0.0583 0.0371 0.1059 0.069 0.2277 0.0956 0.5135 0.1275 0.3282-0.2603 0.3388-0.4622 0.0159-0.3772-0.0106-0.7597-0.0212-1.1369v-0.1328c0.0476-0.3506 0.0476-0.7066 0-1.0572v-0.1275c0.0053-1.631 0.0159-3.2672 0.0212-4.8982 0-0.1541-0.0265-0.2922-0.1906-0.3666-0.8682-0.4037-1.6569-0.9403-2.4827-1.4237-1.1805-0.6853-2.361-1.36-3.5362-2.056-0.6194-0.3666-1.2176-0.7703-1.8793-1.0678-0.7729-0.5738-1.7205-0.8341-2.4669-1.4557-0.18-0.1487-0.3388-0.1328-0.5347-0.0159-0.5558 0.34-1.1222 0.6641-1.6887 0.9881-2.8109 1.6257-5.6166 3.2513-8.4329 4.8663-0.3282 0.1913-0.5452 0.3932-0.4711 0.8076 0.0265 0.1593 0.0159 0.3293 0 0.494-0.0212 0.2391 0.0529 0.3825 0.2806 0.51 1.101 0.611 2.1863 1.2485 3.2768 1.8754 0.8311 0.5312 1.6569 1.0731 2.5674 1.4609l-0.0053-0.0053c0.6617 0.4144 1.3129 0.8447 1.9905 1.2378 1.3552 0.7863 2.7157 1.5513 4.0814 2.3216 0.8788 0.4994 1.7628 0.9935 2.6469 1.4929 0.0212 0.0212 0.0476 0.0265 0.0741 0.0265 0.7094 0.5844 1.5405 0.9616 2.3504 1.376 0.1535 0.1328 0.3282 0.2337 0.5241 0.2975 0.0265 0.1912 0.5558 0.1062 0.2594 0.4728-0.0212 0-0.0371 0.0106-0.0476 0.0266-0.8947 0.3984-1.6993 0.9615-2.5516 1.4344-1.4558 0.8181-2.8851 1.6787-4.325 2.5234-0.1694 0.101-0.3123 0.1275-0.5029 0.0266-0.8099-0.4303-1.604-0.8925-2.3875-1.3547-0.8734-0.5153-1.7469-1.0625-2.6415-1.5407-1.0376-0.5578-1.9905-1.2484-3.0386-1.7797-0.2224-0.1115-0.3018-0.2603-0.2965-0.51 0.0106-0.7119 0.0106-1.4237-0.0053-2.1356-0.0106-0.3719 0.1006-0.3772 0.3865-0.2072 0.9687 0.5791 1.9533 1.1422 2.9327 1.7053 1.694 0.9828 3.388 1.9603 5.0767 2.9485 0.1852 0.1062 0.3229 0.1009 0.4976 0 0.4288-0.2497 0.8628-0.4835 1.2916-0.7278 0.72-0.4197 0.72-0.4782-0.037-0.9085-0.3018-0.17-0.6194-0.3028-0.9105-0.4887-0.9582-0.6163-2.0064-1.0785-2.9698-1.6788-1.6728-1.0413-3.3827-2.0188-5.1085-2.9697-0.0582-0.0372-0.1217-0.0797-0.1799-0.1169-0.667-0.3772-1.2758-0.8766-2.0328-1.0785-0.3071-0.3718-0.7411-0.5312-1.1752-0.765v7.4217c-0.1218 0.4781 0.0635 0.7703 0.5135 0.9616 0.3652 0.1593 0.704 0.3931 1.0534 0.595 1.1593 0.664 2.3239 1.3281 3.4833 1.9922 0.0847 0.0425 0.1641 0.0797 0.2488 0.1222 0.0211 0.0265 0.0317 0.0584 0.0582 0.0743 1.7681 1.0307 3.5362 2.0613 5.299 3.0973 0.18 0.1062 0.3018 0.0318 0.4447-0.0532 0.9688-0.5578 1.9481-1.089 2.901-1.6787 0.794-0.4888 1.6516-0.8713 2.3874-1.4504 0.1536 0.0054 0.2594-0.0796 0.36-0.1859 0.7094-0.3453 1.387-0.7438 2.0328-1.1953 0.0582-0.0319 0.1165-0.0638 0.1747-0.0957 0.8417-0.4675 1.6834-0.9403 2.5251-1.4078 0.1959-0.1062 0.217-0.2709 0.1641-0.4622v-0.1275c-0.0106-0.324 0.2012-0.7065-0.1906-0.935-0.7252-0.425-1.4663-0.8234-2.1969-1.2325-0.0635-0.0372-0.1323-0.0744-0.1958-0.1116-0.8629-0.595-1.7946-1.0784-2.7157-1.5778-0.0159-0.0212-0.0424-0.0319-0.0688-0.0212-0.0794-0.0585-0.1589-0.1169-0.2436-0.1647-1.6463-0.951-3.2873-1.9072-4.9337-2.8529-1.9163-1.105-3.8327-2.21-5.749-3.3097-0.5294-0.3135-1.027-0.68-1.604-0.9138-0.1323-0.0531-0.3123-0.0159-0.3494-0.2072-0.037-0.2125 0.1694-0.2178 0.2806-0.2815 2.1545-1.2591 4.3144-2.5129 6.4742-3.7666 0.7782-0.4516 0.8047-0.4463 1.5193 0.1647 0.0212 0.0159 0.0583 0.0159 0.0847 0.0212 0.2382 0.1328 0.4817 0.2603 0.72 0.3984 0.7834 0.4463 1.5299 0.951 2.361 1.3123l0.0264 0.0159c1.297 0.8394 2.631 1.6203 3.9968 2.3428 0.4605 0.2444 0.6247 0.5207 0.5982 1.0307-0.0424 0.749-0.0106 1.4981-0.0106 2.3587-1.2281-0.9137-2.5516-1.4025-3.7215-2.1781-1.5193-1.0094-3.1445-1.8488-4.722-2.7625-0.1588-0.0904-0.3123-0.17-0.5029-0.0532-0.667 0.3932-1.334 0.7757-2.0063 1.1582 0.1006 0.1859 0.2594 0.239 0.4023 0.3187 0.8629 0.4888 1.7311 0.9722 2.5939 1.4716 0.9953 0.5738 1.9852 1.1635 2.9804 1.7425 1.334 0.7757 2.6733 1.5407 4.0126 2.311 0.1006 0.1328 0.27 0.1275 0.4024 0.1912 0.3388 0.2869 0.7199 0.5154 1.1222 0.6694l1.0852 0.7332zm-1.8475 1.9603c-0.0635-0.0372-0.1323-0.0744-0.1958-0.1116 0.0635 0.0372 0.1323 0.0744 0.1958 0.1116z" fill="#039"/>
<path d="m43.69 71.692c5.6431-1.2644 10.794-4.1597 14.817-8.3301h-4.2562c-2.9009 3.4851-6.5007 6.322-10.561 8.3301z" fill="#039"/>
<path d="m10.285 63.696c-0.46058 0.8713-1.0747 1.6576-1.8105 2.3163 0.74641 0.8075 1.3552 1.7319 1.8105 2.7307 0.4499-0.9988 1.0587-1.9179 1.7998-2.7201-0.7252-0.6693-1.334-1.4556-1.7998-2.3269z" fill="#039"/>
<path d="m0.0058594 7.8827c3.0545-1.9019 3.6897-4.7335 3.8591-7.7404-0.02647 2.8422 1.0217 6.1041 3.8591 7.7404-2.6469 1.8275-3.6103 5.3445-3.8591 7.7404-0.24881-2.3959-1.2123-5.9128-3.8591-7.7404z" fill="#039"/>
</svg>
