<svg width="84" height="72" viewBox="0 0 84 72" fill="none" xmlns="http://www.w3.org/2000/svg">
<path d="M44.4434 2.41214C44.4434 1.07893 43.3645 0 42.0313 0C40.6981 0 39.6191 1.07893 39.6191 2.41214V12.7479C39.6191 14.0811 40.6981 15.1601 42.0313 15.1601C43.3645 15.1601 44.4434 14.0811 44.4434 12.7479V2.41214Z" fill="#003399"/>
<path d="M29.9912 17.0363C30.4585 17.5036 31.077 17.7441 31.6955 17.7441C32.314 17.7441 32.9325 17.5105 33.3998 17.0363C34.3413 16.0948 34.3413 14.5692 33.3998 13.6277L28.2319 8.45978C27.2904 7.51829 25.7648 7.51829 24.8233 8.45978C23.8818 9.40127 23.8818 10.9269 24.8233 11.8684L29.9912 17.0363Z" fill="#003399"/>
<path d="M52.3675 17.7441C52.986 17.7441 53.6044 17.5105 54.0718 17.0363L59.2396 11.8684C60.1811 10.9269 60.1811 9.40127 59.2396 8.45978C58.2982 7.51829 56.7725 7.51829 55.831 8.45978L50.6631 13.6277C49.7217 14.5692 49.7217 16.0948 50.6631 17.0363C51.1373 17.5105 51.749 17.7441 52.3675 17.7441Z" fill="#003399"/>
<path d="M35.0563 23.3038C35.0289 23.3244 35.0082 23.345 34.9876 23.3656L24.5556 32.3064C23.5867 33.131 22.3565 33.5915 21.0783 33.5915H13.6082C6.57111 33.5915 0.867188 39.2816 0.867188 46.3325V69.588C0.867188 70.9212 1.94612 72.0002 3.27933 72.0002H23.9509C25.2841 72.0002 26.363 70.9212 26.363 69.588V47.4458L38.6368 36.9245C39.2621 36.3885 39.6264 35.605 39.6264 34.7804V25.5166C39.6195 23.1595 36.8844 21.8194 35.0563 23.3038Z" fill="#003399"/>
<path d="M70.4556 33.5915H62.9855C61.7141 33.5915 60.4771 33.1379 59.5082 32.3064L49.083 23.3656C49.0624 23.345 49.0349 23.3244 49.0143 23.3038C47.1863 21.8194 44.4512 23.1595 44.4512 25.5166V34.7804C44.4512 35.605 44.8085 36.3885 45.4408 36.9245L57.7145 47.4458V69.588C57.7145 70.9212 58.7934 72.0002 60.1266 72.0002H80.7982C82.1314 72.0002 83.2103 70.9212 83.2103 69.588V46.3325C83.2035 39.2816 77.4927 33.5915 70.4556 33.5915Z" fill="#003399"/>
<path d="M23.7791 23.4274C23.7791 17.8266 19.2229 13.2634 13.6151 13.2634C8.00744 13.2634 3.45117 17.8197 3.45117 23.4274C3.45117 29.0351 8.00744 33.5914 13.6151 33.5914C19.2229 33.5914 23.7791 29.0282 23.7791 23.4274Z" fill="#003399"/>
<path d="M80.619 23.4274C80.619 17.8266 76.0627 13.2634 70.455 13.2634C64.8473 13.2634 60.291 17.8197 60.291 23.4274C60.291 29.0351 64.8473 33.5914 70.455 33.5914C76.0627 33.5914 80.619 29.0282 80.619 23.4274Z" fill="#003399"/>
</svg>
