<svg width="64" height="64" viewBox="0 0 64 64" xmlns="http://www.w3.org/2000/svg">
<path d="m33.028 29.94h-2.0642v2.0643c-1.7111 0-3.0963 1.3852-3.0963 3.0963s1.3852 3.0963 3.0963 3.0963h2.0642c0.5704 0 1.0322 0.4618 1.0322 1.0321 0 0.5704-0.4618 1.0321-1.0322 1.0321h-3.0963v-1.0321h-2.0642v3.0964h3.0963v2.0642h2.0642v-2.0642c1.7112 0 3.0964-1.3852 3.0964-3.0964 0-1.7111-1.3852-3.0963-3.0964-3.0963h-2.0642c-0.5704 0-1.0321-0.4617-1.0321-1.0321s0.4617-1.0321 1.0321-1.0321h3.0964v1.0321h2.0642v-3.0963h-3.0964v-2.0643z" fill="#039"/>
<path d="m45.412 37.482c0-3.7754-1.6296-7.3697-4.4725-9.8594l-3.6214-3.1688 3.2321-9.6964-5.8758-1.4667-2.7975 3.7301-2.6708-2.6708-5.8215 1.4576 3.2502 8.6734-3.5943 3.1507c-2.8428 2.4897-4.4724 6.084-4.4724 9.8593 0 7.2248 5.8758 13.101 13.1 13.101h0.6338c7.2338-9e-3 13.11-5.8848 13.11-13.11zm-16.831-20.86 3.5218 3.5218 3.3951-4.5358 2.3811 0.5975-2.5078 7.5235h-6.7993l-2.4354-6.5095 2.4445-0.5975zm3.7301 31.896h-0.6338c-6.084 0-11.036-4.9523-11.036-11.036 0-3.1869 1.3762-6.2108 3.7663-8.3112l3.8478-3.3589h7.4874l3.8478 3.3589c2.3992 2.1004 3.7663 5.1243 3.7663 8.3112-0.0091 6.084-4.9614 11.036-11.045 11.036z" fill="#039"/>
<path d="m10.348 30.031c0.9415-10.457 9.2165-18.732 19.674-19.674l0.9415-0.0815v-8.2931l-1.1045 0.08148c-14.803 1.0502-26.753 12.992-27.795 27.795l-0.08148 1.1046h8.2841l0.0815-0.9325zm10.593-19.103c-0.6066 0.3169-1.2041 0.67-1.7745 1.0321l-2.2815-3.4132c0.7967-0.51606 1.6206-1.005 2.4716-1.4395l1.5844 3.8206zm0.2897-4.6807c0.8873-0.38025 1.8017-0.71524 2.7342-0.9959l0.8148 4.0741c-0.67 0.20823-1.3218 0.45268-1.9646 0.72425l-1.5844-3.8025zm-3.7572 6.9079c-0.5433 0.4165-1.0593 0.8511-1.5573 1.3128l-2.8971-2.8972c0.6971-0.6428 1.4214-1.2584 2.1728-1.8288l2.2816 3.4132zm-3.0149 2.7704c-0.4617 0.498-0.8963 1.0231-1.3128 1.5573l-3.4132-2.2816c0.57039-0.7514 1.186-1.4757 1.8288-2.1728l2.8972 2.8971zm-2.4988 3.2412c-0.3712 0.5795-0.7152 1.1679-1.0321 1.7745l-3.8206-1.5843c0.43457-0.8511 0.92348-1.675 1.4395-2.4717l3.4132 2.2815zm-1.9194 3.6486c-0.27158 0.6428-0.51603 1.2947-0.72426 1.9647l-4.0741-0.8149c0.28067-0.9325 0.62471-1.8378 0.99591-2.7342l3.8025 1.5844zm18.859-14.413c-0.7152 0.09053-1.4214 0.22634-2.1276 0.38025l-0.8058-4.047c0.9597-0.21728 1.9375-0.39835 2.9244-0.507v4.1737h9e-3zm-24.68 20.497c0.10864-0.9959 0.28971-1.9647 0.507-2.9244l4.047 0.8058c-0.15391 0.6971-0.28971 1.4033-0.38025 2.1276h-4.1737v-9e-3z" fill="#039"/>
<path d="m53.642 33.969c-0.9416 10.457-9.2165 18.732-19.674 19.674l-0.9416 0.0814v8.2841l1.1046-0.0815c14.803-1.0502 26.753-12.992 27.795-27.795l0.0815-1.1045h-8.2841l-0.0815 0.9416zm6.1293 1.1317c-1.4304 12.901-11.779 23.25-24.68 24.68v-4.1737c10.692-1.3852 19.112-9.8141 20.506-20.506h4.1737z" fill="#039"/>
<path d="m10.348 33.969-0.0815-0.9416h-8.2841l0.08148 1.1045c0.6247 8.8364 5.1334 16.65 11.824 21.747l-3.9926 3.9927h-3.893c-0.42552-1.1951-1.5663-2.0643-2.9062-2.0643-1.7111 0-3.0963 1.3852-3.0963 3.0964 0 1.7111 1.3852 3.0963 3.0963 3.0963 1.3399 0 2.4807-0.8691 2.9062-2.0642h4.7441l4.8437-4.8437c4.1647 2.7432 9.0355 4.4725 14.268 4.8437l1.1046 0.0815v-8.2841l-0.9416-0.0815c-10.457-0.9506-18.732-9.2166-19.674-19.682zm-7.261 27.967c-0.57038 0-1.0321-0.4618-1.0321-1.0321 0-0.5704 0.46174-1.0321 1.0321-1.0321 0.57037 0 1.0321 0.4617 1.0321 1.0321 0 0.5703-0.46174 1.0321-1.0321 1.0321zm25.812-2.1638c-12.901-1.4305-23.25-11.779-24.68-24.68h4.1737c1.3852 10.692 9.8141 19.112 20.506 20.506v4.1738z" fill="#039"/>
<path d="m57.998 4.1284c0.4255 1.1951 1.5663 2.0642 2.9062 2.0642 1.7112 0 3.0964-1.3852 3.0964-3.0963 0-1.7111-1.3852-3.0963-3.0964-3.0963-1.3399 0-2.4807 0.86915-2.9062 2.0642h-4.7441l-4.8436 4.8437c-4.1647-2.7432-9.0356-4.4725-14.268-4.8437l-1.1046-0.08148v8.2841l0.9416 0.0815c10.457 0.9416 18.732 9.2166 19.674 19.674l0.0815 0.9416h8.284l-0.0815-1.1046c-0.6247-8.8363-5.1334-16.65-11.824-21.747l3.9927-3.9926 3.893 0.00906zm2.9062-2.0642c0.5704 0 1.0321 0.46174 1.0321 1.0321 0 0.57037-0.4617 1.0321-1.0321 1.0321-0.5703 0-1.0321-0.46174-1.0321-1.0321 0-0.57038 0.4618-1.0321 1.0321-1.0321zm-1.1317 26.835h-4.1737c-1.3852-10.692-9.8141-19.112-20.506-20.506v-4.1647c12.901 1.4305 23.25 11.77 24.68 24.671z" fill="#039"/>
</svg>
