<svg width="65" height="64" viewBox="0 0 65 64" xmlns="http://www.w3.org/2000/svg">
<path d="m52.654 0v2.0677h7.8303l-16.092 16.092-7.228-7.2279-14.681 14.681c-1.0518-5.1783-5.6457-9.0889-11.13-9.0889-6.2571 0-11.354 5.0973-11.354 11.354 0 6.2571 5.0973 11.354 11.354 11.354 6.1132 0 11.094-4.8546 11.336-10.905l14.474-14.474 7.228 7.228 17.548-17.549v7.8303h2.0677v-11.363h-11.354zm-41.291 37.165c-5.1243 0-9.2867-4.1713-9.2867-9.2867 0-5.1153 4.1714-9.2866 9.2867-9.2866 5.1243 0 9.2867 4.1713 9.2867 9.2866 0 5.1154-4.1624 9.2867-9.2867 9.2867z" fill="#039"/>
<path d="m12.395 24.777c0.5664 0 1.0339 0.4585 1.0339 1.0338h2.0677c0-1.7081-1.3935-3.0925-3.0926-3.0925v-2.0678h-2.0677v2.0678h-3.0926v3.0925c0 1.7081 1.3935 3.0926 3.0926 3.0926h2.0677c0.5664 0 1.0339 0.4585 1.0339 1.0338v1.0339h-3.0926c-0.56636 0-1.0338-0.4585-1.0338-1.0339h-2.0677c0 1.7081 1.3935 3.0926 3.0926 3.0926v2.0677h2.0677v-2.0677h3.0926v-3.0926c0-1.7081-1.3935-3.0925-3.0926-3.0925h-2.0677c-0.56636 0-1.0338-0.4585-1.0338-1.0339v-1.0338h3.0925z" fill="#039"/>
<path d="m61.939 14.456h-8.2618v20.641h-4.1264v-12.388h-8.2618v12.388h-4.1264v-10.32h-8.2619v11.274c-11.876 3.1914-20.641 14.042-20.641 26.916v1.0338h55.738v-1.0338c0-11.651-7.192-21.648-17.36-25.81h17.36v-2.0677h-2.0677v-20.632h0.0089zm-6.1941 2.0587h4.1265v18.582h-4.1265v-18.582zm-12.388 8.2618h4.1264v10.32h-4.1264v-10.32zm12.361 37.156h-12.433c-0.1978-1.3485-0.7552-2.5801-1.5913-3.578l6.5088-10.851c4.468 3.4971 7.21 8.7652 7.5157 14.429zm-19.58-18.573c2.2835 0 4.504 0.4135 6.6257 1.1776l-6.7336 11.22c-3.587 0.0539-6.5447 2.724-7.0392 6.1851h-12.415c0.5394-10.338 9.0889-18.582 19.562-18.582zm-1.0338-2.0138c-3.1915 0.1528-6.2032 0.9799-8.8912 2.3734l-2.0767-3.596c3.2994-1.7351 7.0213-2.778 10.968-2.9398v4.1624zm11.885 2.1576c0.4854 0.2877 0.6472 0.926 0.3506 1.4204l-7.219 12.029c-0.5754-0.3776-1.2047-0.6833-1.8699-0.89l7.3268-12.2c0.2787-0.4765 0.944-0.6473 1.4115-0.3596zm-10.851 14.303c2.4902 0 4.5759 1.78 5.0614 4.1264h-10.114c0.4675-2.3464 2.5532-4.1264 5.0524-4.1264zm11.238-16.362c-0.2966-0.0899-0.6023-0.1528-0.917-0.1528-1.0518 0-2.0407 0.5573-2.6071 1.4384-2.1396-0.8181-4.3781-1.2856-6.6885-1.3935v-4.1534c3.9466 0.1528 7.6685 1.1957 10.968 2.9398l-0.7552 1.3215zm-16.407-14.609h4.1264v8.2798c-1.4025 0.054-2.7869 0.2068-4.1264 0.4585v-8.7383zm-8.6125 14.33 2.0677 3.587c-2.6071 1.6811-4.8276 3.9017-6.5088 6.5088l-3.587-2.0767c2.0498-3.2274 4.7917-5.9694 8.0281-8.0191zm-9.0619 9.8081 3.587 2.0767c-1.3935 2.688-2.2205 5.6997-2.3734 8.8911h-4.1623c0.1618-3.9556 1.2046-7.6685 2.9487-10.968zm44.483 10.959c-0.1528-3.1375-0.971-6.1671-2.3824-8.9001l3.5781-2.0677c1.744 3.2993 2.7869 7.0212 2.9487 10.959h-4.1444v9e-3zm0.1618-12.748-3.578 2.0677c-1.3575-2.1127-3.0746-3.9916-5.1154-5.5379 0.4765-0.9979 0.3776-2.1396-0.2067-3.0206l0.881-1.5283c3.2274 2.0497 5.9694 4.7917 8.0191 8.0191z" fill="#039"/>
<path d="m20.928 60.062c0.1259-0.6563 0.2877-1.3035 0.4945-1.9328l-1.9599-0.6473c-0.2337 0.7102-0.4225 1.4564-0.5663 2.1935l2.0317 0.3866z" fill="#039"/>
<path d="m36.14 47.485v-2.0677c-6.7695 0-12.82 3.7848-15.786 9.871l1.8609 0.908c2.6161-5.376 7.9472-8.7113 13.926-8.7113z" fill="#039"/>
</svg>
