<svg width="57" height="64" viewBox="0 0 57 64" fill="none" xmlns="http://www.w3.org/2000/svg">
<path d="M34.7347 21.3601C38.9328 22.4396 42.1013 25.898 42.8209 30.166C42.9009 30.6558 43.3307 30.9956 43.8105 30.9956C43.8605 30.9956 43.9204 30.9956 43.9804 30.9856C44.5201 30.8956 44.89 30.3759 44.8 29.8361C43.9504 24.7885 40.2022 20.7004 35.2445 19.421C34.7048 19.2811 34.165 19.6009 34.0251 20.1407C33.8851 20.6704 34.205 21.2202 34.7347 21.3601Z" fill="#003399"/>
<path d="M16.8121 52.8252C17.5718 52.0656 17.9816 51.066 17.9816 49.9965C17.9816 49.2669 17.7917 48.5772 17.4318 47.9675L20.7003 44.699C23.6989 47.3678 27.657 48.997 31.985 48.997C41.3506 48.997 48.977 41.3706 48.977 32.005C48.977 22.6394 41.3506 15.0129 31.985 15.0129C22.6194 15.0129 14.993 22.6394 14.993 32.005C14.993 36.3329 16.6222 40.2811 19.291 43.2897L16.0225 46.5582C15.4128 46.1983 14.7131 46.0084 13.9934 46.0084C12.9239 46.0084 11.9244 46.4282 11.1648 47.1779L1.16945 57.1732C0.409806 57.9328 0 58.9324 0 60.0019C0 61.0714 0.419801 62.0709 1.16945 62.8305C1.94908 63.6102 2.96861 64 3.99813 64C5.01765 64 6.04716 63.6102 6.82679 62.8305L16.8121 52.8252ZM31.975 17.012C40.2411 17.012 46.968 23.7388 46.968 32.005C46.968 40.2711 40.2411 46.9979 31.975 46.9979C23.7089 46.9979 16.982 40.2711 16.982 32.005C16.982 23.7388 23.7089 17.012 31.975 17.012ZM15.4028 51.4059L5.40746 61.4012C4.62783 62.1808 3.35842 62.1808 2.57879 61.4012C2.19896 61.0214 1.98907 60.5216 1.98907 59.9919C1.98907 59.4621 2.19896 58.9523 2.57879 58.5825L12.5741 48.5872C12.9539 48.2074 13.4537 47.9975 13.9834 47.9975C14.5132 47.9975 15.023 48.2074 15.3928 48.5872C15.7726 48.967 15.9825 49.4668 15.9825 49.9965C15.9825 50.5263 15.7826 51.0261 15.4028 51.4059Z" fill="#003399"/>
<path d="M56.9624 13.9135C56.9624 13.9035 56.9625 13.8835 56.9525 13.8735C56.9525 13.8535 56.9524 13.8335 56.9425 13.8235C56.9425 13.8035 56.9325 13.7935 56.9325 13.7735C56.9325 13.7536 56.9225 13.7436 56.9225 13.7236C56.9225 13.7036 56.9125 13.6936 56.9025 13.6736C56.8925 13.6536 56.8925 13.6436 56.8825 13.6236C56.8725 13.6136 56.8725 13.5936 56.8625 13.5836C56.8525 13.5636 56.8525 13.5536 56.8425 13.5337C56.8325 13.5237 56.8225 13.5037 56.8225 13.4937C56.8125 13.4837 56.8025 13.4637 56.7925 13.4537C56.7825 13.4437 56.7725 13.4237 56.7625 13.4137C56.7525 13.4037 56.7426 13.3837 56.7326 13.3737C56.7126 13.3537 56.6926 13.3238 56.6726 13.3038C56.6726 13.3038 56.6726 13.3038 56.6626 13.2938L43.6687 0.29986C43.6387 0.269874 43.5987 0.239888 43.5687 0.209902C43.5587 0.199906 43.5487 0.199906 43.5487 0.189911C43.5088 0.159925 43.4788 0.139934 43.4388 0.119944H43.4288C43.3888 0.099953 43.3588 0.0799622 43.3188 0.0699669C43.3089 0.0699669 43.2989 0.0599723 43.2989 0.0599723C43.2589 0.049977 43.2189 0.0299864 43.1689 0.0199911C43.1289 0.00999577 43.089 0.00999532 43.049 0C43.039 0 43.029 0 43.019 0C43.009 0 42.999 0 42.989 0H10.0045C8.35523 0 7.00586 1.34937 7.00586 2.99859V45.9785C7.00586 46.5282 7.45565 46.978 8.00539 46.978C8.55513 46.978 9.00492 46.5282 9.00492 45.9785V2.99859C9.00492 2.44885 9.45471 1.99906 10.0045 1.99906H41.9895V11.9944C41.9895 13.6436 43.3388 14.993 44.9881 14.993H50.9853C51.535 14.993 51.9848 14.5432 51.9848 13.9934C51.9848 13.4437 51.535 12.9939 50.9853 12.9939H44.9881C44.4383 12.9939 43.9885 12.5441 43.9885 11.9944V3.4084L54.9834 14.4032V60.9714C54.9834 61.5212 54.5336 61.971 53.9838 61.971H11.004C10.4542 61.971 10.0045 62.4207 10.0045 62.9705C10.0045 63.5202 10.4542 63.97 11.004 63.97H53.9838C55.6331 63.97 56.9824 62.6206 56.9824 60.9714V13.9934C56.9625 13.9735 56.9624 13.9435 56.9624 13.9135Z" fill="#003399"/>
<path d="M40.9702 32.0049C40.9702 31.4552 40.5204 31.0054 39.9706 31.0054H19.98C19.4303 31.0054 18.9805 31.4552 18.9805 32.0049C18.9805 32.5546 19.4303 33.0044 19.98 33.0044H39.9706C40.5304 33.0044 40.9702 32.5546 40.9702 32.0049Z" fill="#003399"/>
<path d="M41.9711 36.0032H22.98C22.4303 36.0032 21.9805 36.453 21.9805 37.0027C21.9805 37.5524 22.4303 38.0022 22.98 38.0022H41.9711C42.5208 38.0022 42.9706 37.5524 42.9706 37.0027C42.9706 36.453 42.5308 36.0032 41.9711 36.0032Z" fill="#003399"/>
<path d="M22.98 28.0069H37.973C38.5227 28.0069 38.9725 27.5571 38.9725 27.0073C38.9725 26.4576 38.5227 26.0078 37.973 26.0078H22.98C22.4303 26.0078 21.9805 26.4576 21.9805 27.0073C21.9805 27.5571 22.4303 28.0069 22.98 28.0069Z" fill="#003399"/>
</svg>
