<svg width="52" height="64" viewBox="0 0 52 64" fill="none" xmlns="http://www.w3.org/2000/svg">
<path d="M8.56672 41.8727C10.1637 40.7088 11.9501 39.8427 13.8583 39.3284L19.583 45.0531C19.583 45.0531 19.583 45.0531 19.5965 45.0666C20.2326 45.6891 21.1664 45.9463 22.0732 45.6756L23.2506 47.7056L20.6927 62.1324H11.287V57.6798C11.287 57.1656 10.8674 56.746 10.3531 56.746C9.83887 56.746 9.41933 57.1656 9.41933 57.6798V62.1324H5.15627C3.34278 62.1324 1.86763 60.6572 1.86763 58.8437V55.0543C1.86763 51.3056 3.18038 47.638 5.54874 44.7283L8.56672 41.8727ZM4.10066 43.5373C1.46162 46.7854 0 50.859 0 55.0543V58.8437C0 61.6858 2.31423 64 5.15627 64H46.7448C49.5868 64 51.901 61.6858 51.901 58.8437V53.6333C51.901 53.1191 51.4815 53.8769 50.9672 53.8769V52.6995C50.4529 52.6995 50.0334 53.1191 50.0334 53.6333V58.8437C50.0334 60.6572 48.5583 62.1324 46.7448 62.1324H42.4952V57.6798C42.4952 57.1656 42.0757 56.746 41.5614 56.746C41.0472 56.746 40.6276 57.1656 40.6276 57.6798V62.1324H31.2354L28.6775 47.7056L29.8549 45.6756C30.7617 45.9463 31.6955 45.6756 32.3316 45.0666C32.3316 45.0666 32.3316 45.0666 32.3451 45.0531L38.0698 39.3284C41.2366 40.1945 44.0245 41.9674 46.1628 44.4711C48.4094 47.1102 49.7357 50.3176 50.0063 53.7551C50.0469 54.2423 50.4529 54.6213 50.9402 54.6213C50.9672 54.6213 50.9943 54.6213 51.0078 54.6213C51.5221 54.5807 51.9146 54.1341 51.874 53.6198C51.5762 49.7763 50.0875 46.2034 47.5838 43.2531C45.1072 40.3569 41.8592 38.3405 38.1645 37.4202L35.6337 35.8638C34.8353 35.3766 33.8203 35.3901 33.0218 35.8773L32.9541 35.918C32.2639 35.0924 32.5616 34.2533 32.4804 33.2789C33.1165 32.8864 33.7391 32.4263 34.3345 31.8985C35.2277 31.1136 35.9721 30.1933 36.5676 29.1647H38.6247C40.8848 29.1647 42.7253 27.3242 42.7253 25.0641V17.35C42.7253 16.159 42.0622 15.0763 41.0607 14.5215V12.0042C41.0607 11.0839 40.6953 10.2043 40.0321 9.5276C40.0186 9.51406 40.0186 9.50053 40.0186 9.51406C40.0321 7.7141 38.8818 6.10362 37.1089 5.44047C37.0142 5.41341 36.96 5.35927 36.9465 5.2916C36.527 3.81645 35.1736 2.73377 33.5767 2.61197C33.5631 2.61197 33.5361 2.59843 33.5361 2.59843C32.6022 1.29922 30.9106 0.744343 29.3677 1.15035C29.273 1.17742 29.1918 1.15035 29.1377 1.09621C28.0008 0 26.7152 0 25.9573 0C25.1453 0 23.9137 0 22.7904 1.10975C22.7363 1.16388 22.6416 1.17742 22.5604 1.16388C21.004 0.744343 19.3123 1.32628 18.392 2.61197C18.392 2.61197 18.3785 2.6255 18.3514 2.6255C16.741 2.7473 15.3876 3.81645 14.9816 5.2916C14.9545 5.35927 14.9004 5.41341 14.8192 5.44047C13.0463 6.11715 11.9095 7.7141 11.923 9.51406C11.923 9.51406 11.923 9.5276 11.9095 9.54113C11.2464 10.2178 10.8809 11.0975 10.8809 12.0178V14.5621C9.86593 15.1169 9.21632 16.1996 9.21632 17.3906V21.3153C9.21632 23.1017 10.6644 24.5498 12.4508 24.5498H13.8583C14.1831 27.473 15.55 30.1527 17.7018 32.0068C18.2702 32.494 18.8522 32.927 19.4612 33.306C19.3935 34.3075 19.6913 35.133 18.9875 35.9586L18.9199 35.918C18.1349 35.4172 17.1064 35.4037 16.3079 35.9044L13.7771 37.4608C11.49 38.0292 9.37873 39.0171 7.4705 40.4111L4.10066 43.5373ZM24.7663 46.5959L23.6295 44.6471L25.9573 42.6982L28.285 44.6471L27.1482 46.5959H24.7663ZM34.6458 37.4608L36.2698 38.4623L31.0188 43.7268C30.7752 43.9569 30.4098 43.9704 30.1527 43.7539L30.1256 43.7268L27.5542 41.575L34.0368 37.4608C34.2127 37.3525 34.4563 37.3525 34.6458 37.4608ZM40.4652 16.4432C40.6953 16.6868 40.8442 17.0252 40.8442 17.377V21.3018C40.8442 22.0461 40.2351 22.6551 39.4908 22.6551H38.1645V17.8236C38.1645 17.5394 38.3946 17.2958 38.6923 17.2958C39.3961 17.2688 40.0321 16.944 40.4652 16.4432ZM33.7526 28.9211H31.1677C30.694 28.9211 30.3151 28.5422 30.3151 28.0685C30.3151 27.5948 30.694 27.2159 31.1677 27.2159H33.7526C34.2263 27.2159 34.6052 27.5948 34.6052 28.0685C34.6052 28.5422 34.2127 28.9211 33.7526 28.9211ZM38.6247 27.3106H37.4472C37.772 26.431 37.9886 25.4971 38.0968 24.5363H39.4908C39.978 24.5363 40.4381 24.428 40.8442 24.2385V25.0911C40.8442 26.3092 39.8427 27.3106 38.6247 27.3106ZM12.7486 12.0042C12.7486 11.5847 12.9245 11.1652 13.2358 10.8539C13.6012 10.4885 13.7907 10.0148 13.7907 9.51406C13.7907 8.49905 14.4538 7.5923 15.4823 7.19983C16.1184 6.95623 16.5921 6.44195 16.768 5.80588C16.971 5.0886 17.6612 4.56079 18.4732 4.49313C19.0417 4.45253 19.5559 4.16832 19.8943 3.70818C20.3679 3.04504 21.2612 2.76084 22.0596 2.97737C22.7904 3.16684 23.5618 2.96384 24.0897 2.44957C24.631 1.92176 25.1453 1.88116 25.9438 1.88116C26.7152 1.88116 27.2565 1.92176 27.7978 2.44957C28.3256 2.96384 29.0971 3.16684 29.8279 2.97737C30.6263 2.76084 31.5196 3.04504 31.9932 3.70818C32.318 4.16832 32.8323 4.45253 33.4143 4.49313C34.2398 4.56079 34.9165 5.07507 35.1195 5.80588C35.2954 6.45549 35.7691 6.96976 36.4052 7.19983C37.4337 7.5923 38.0968 8.49905 38.0968 9.51406C38.0968 10.0148 38.2863 10.4885 38.6517 10.8539C38.963 11.1787 39.1389 11.5847 39.1389 12.0042V14.8733C39.1389 15.1575 38.9089 15.4011 38.6111 15.4147C37.3119 15.4417 36.2563 16.5244 36.2563 17.8236V18.4326H35.6608C35.1736 18.4326 34.7676 18.0402 34.7676 17.5394L34.7811 12.6674C34.7811 9.45993 32.1286 8.10658 29.0429 9.02686C27.1888 9.58173 24.6987 9.58173 22.831 9.02686C19.7725 8.12011 17.1199 9.45993 17.1199 12.6809L17.1334 17.553C17.1334 18.0402 16.741 18.4462 16.2402 18.4462H15.6447C15.6447 17.8236 15.6447 17.8236 15.6447 17.7424C15.5906 16.4838 14.5621 15.4553 13.2899 15.4282C13.0057 15.4282 12.7621 15.1846 12.7621 14.8869L12.7486 12.0042ZM11.0839 21.3018V17.377C11.0839 17.0252 11.2328 16.6868 11.4629 16.4432C11.896 16.944 12.532 17.2823 13.2358 17.2958C13.52 17.2958 13.7636 17.5394 13.7636 17.8372V22.6686H12.4373C11.693 22.6551 11.0839 22.0461 11.0839 21.3018ZM15.6312 23.2776V20.3273H16.2402C17.7695 20.3273 19.0146 19.0823 19.0011 17.553L18.9875 12.6809C18.9875 10.7185 20.4897 10.2855 22.3168 10.8403C24.5227 11.49 27.3783 11.49 29.5843 10.8403C31.4113 10.299 32.9135 10.7185 32.9135 12.6809L32.9 17.553C32.9 19.0823 34.1315 20.3273 35.6608 20.3273H36.2563V23.5348C36.2292 24.4957 36.0533 25.4295 35.7826 26.3092C35.2819 25.7272 34.5511 25.3618 33.7255 25.3618H31.1406C29.6384 25.3618 28.4204 26.5798 28.4204 28.082C28.4204 29.5843 29.6384 30.8023 31.1406 30.8023H32.724C28.5287 34.2263 22.9664 34.0909 18.8928 30.5722C15.5229 27.6354 15.6853 23.5213 15.6312 23.2776ZM21.3153 34.2398C24.225 35.4307 27.4866 35.5255 30.5993 34.2533C30.6263 34.4563 30.4233 35.7014 31.3572 36.9465L25.9573 40.3705L20.5709 36.9465C21.4912 35.6879 21.2882 34.4428 21.3153 34.2398ZM20.8957 43.7268L15.6447 38.4623L17.2688 37.4608C17.4582 37.339 17.7018 37.3525 17.8913 37.4608L24.3739 41.575L21.8025 43.7268L21.7754 43.7539C21.5048 43.9704 21.1394 43.9569 20.8957 43.7268ZM25.0099 48.4635H26.9182L29.3407 62.1188H22.601L25.0099 48.4635Z" fill="white"/>
<path d="M37.0023 47.1779C35.5407 47.1779 34.3633 48.3688 34.3633 49.8169V50.8319C34.3633 52.2935 35.5542 53.4709 37.0023 53.4709H41.8609C43.3225 53.4709 44.4999 52.28 44.4999 50.8319V49.8169C44.4999 48.3553 43.3089 47.1779 41.8609 47.1779H37.0023ZM42.6187 49.8169V50.8319C42.6187 51.2514 42.2804 51.6033 41.8609 51.6033H37.0023C36.5828 51.6033 36.2309 51.265 36.2309 50.8319V49.8169C36.2309 49.3974 36.5692 49.0455 37.0023 49.0455H41.8609C42.2804 49.0455 42.6187 49.3974 42.6187 49.8169Z" fill="white"/>
</svg>
