<svg width="68" height="64" viewBox="0 0 68 64" xmlns="http://www.w3.org/2000/svg">
<path d="m46.866 55.281h-15.892l1.4064-1.4064c0.4219-0.4219 0.4219-1.1133 0-1.5469l-13.079-13.079c-0.1993-0.1992-0.4805-0.3164-0.7735-0.3164h-16.349v-2.1798h-2.1798v19.618h2.1798v-2.1798h9.4225l11.684 9.563c0.1992 0.1641 0.4336 0.2462 0.6914 0.2462h22.888c0.5977 0 1.09-0.4923 1.09-1.09v-6.5394c0-0.5977-0.4805-1.0899-1.09-1.0899zm-1.0899 6.5394h-21.411l-11.684-9.5631c-0.1993-0.164-0.4337-0.2461-0.6915-0.2461h-9.8092v-10.899h15.903l11.989 11.989-2.8243 2.8243-5.766-5.7659-1.547 1.5469 6.5395 6.5395c0.2109 0.2109 0.4922 0.3164 0.7735 0.3164 0.2812 0 0.5625-0.1055 0.7734-0.3164l0.7735-0.7735h16.993l-0.0117 4.3479z" fill="#fff"/>
<path d="m65.408 45.671v-11.098c0-8.4145-6.8441-15.259-15.259-15.259s-15.27 6.8442-15.27 15.259v11.098c-1.2657 0.457-2.1798 1.6524-2.1798 3.0705 0 1.8048 1.465 3.2697 3.2698 3.2697h28.338c1.8048 0 3.2697-1.4649 3.2697-3.2697 0.0118-1.4181-0.9023-2.6135-2.1681-3.0705zm-1.0899 4.1604h-28.349c-0.5977 0-1.09-0.4922-1.09-1.0899s0.4923-1.0899 1.09-1.0899h3.2697v-2.1799h-2.1798v-10.899c0-7.2074 5.8714-13.079 13.079-13.079s13.079 5.8715 13.079 13.079v10.899h-2.1798v2.1799h3.2697c0.5977 0 1.0899 0.4922 1.0899 1.0899s-0.4805 1.0899-1.0782 1.0899z" fill="#fff"/>
<path d="m50.137 30.213c1.2071 0 2.1798 0.9727 2.1798 2.1798h2.1798c0-2.0275-1.3946-3.7151-3.2697-4.2073v-2.3322h-2.1798v2.3322c-1.8751 0.4922-3.2698 2.1798-3.2698 4.2073 0 2.4025 1.9572 4.3597 4.3597 4.3597 1.2071 0 2.1798 0.9727 2.1798 2.1798s-0.9727 2.1798-2.1798 2.1798-2.1798-0.9727-2.1798-2.1798h-2.1799c0 2.0274 1.3947 3.715 3.2698 4.2073v2.3321h2.1798v-2.3321c1.8751-0.4923 3.2697-2.1799 3.2697-4.2073 0-2.4025-1.9571-4.3597-4.3596-4.3597-1.2071 0-2.1798-0.9727-2.1798-2.1798 0-1.1954 0.9844-2.1798 2.1798-2.1798z" fill="#fff"/>
<path d="m56.677 17.134h-2.7893l2.719-7.2426c0.1523-0.41018 0.0468-0.85552-0.2579-1.1602-0.3047-0.3047-0.7617-0.38674-1.1719-0.23438l-5.0394 2.0158-5.0394-2.0158c-0.3984-0.16408-0.8555-0.07032-1.1719 0.23438-0.3047 0.30471-0.4102 0.76177-0.2578 1.1602l2.7189 7.2426h-2.7892v2.1798h13.079v-2.1798zm-7.9575 0-2.133-5.6957 3.1526 1.2657c0.2578 0.1055 0.5508 0.1055 0.8086 0l3.1525-1.2657-2.1329 5.6957h-2.8478z" fill="#fff"/>
<path d="m22.887 22.888c2.215 0 4.3479-0.6328 6.1996-1.8282l4.2542 1.7696c0.0937 0.0352 0.1875 0.0586 0.2695 0.0586 0.1875 0 0.3633-0.0703 0.504-0.2109 0.2109-0.1993 0.2695-0.5157 0.1523-0.7852l-1.7696-4.2542c1.1954-1.8517 1.8282-3.9846 1.8282-6.1996 0.0117-6.3051-5.1214-11.438-11.438-11.438s-11.438 5.1331-11.438 11.45c0 6.3168 5.1331 11.438 11.438 11.438zm0-21.458c5.5199 0 10.02 4.4886 10.02 10.02 0 2.0509-0.6212 4.0198-1.7931 5.7074-0.1407 0.1992-0.1641 0.4571-0.0703 0.6797l1.2539 3.0119-3.0119-1.254c-0.2226-0.0937-0.4805-0.0703-0.6797 0.0704-1.6876 1.1719-3.6565 1.793-5.7074 1.793-5.5198 0-10.02-4.4885-10.02-10.02 0-5.5316 4.4885-10.008 10.008-10.008z" fill="#fff"/>
<path d="m19.313 10.735c1.5821 0 2.8595-1.2892 2.8595-2.8596s-1.2891-2.8596-2.8595-2.8596c-1.5822 0-2.8596 1.2891-2.8596 2.8596s1.2774 2.8596 2.8596 2.8596zm0-4.301c0.7852 0 1.4298 0.64457 1.4298 1.4298 0 0.78521-0.6446 1.4298-1.4298 1.4298s-1.4298-0.64457-1.4298-1.4298c0-0.7852 0.6446-1.4298 1.4298-1.4298z" fill="#fff"/>
<path d="m26.461 12.165c-1.5821 0-2.8595 1.2891-2.8595 2.8595s1.2891 2.8596 2.8595 2.8596c1.5821 0 2.8596-1.2892 2.8596-2.8596s-1.2775-2.8595-2.8596-2.8595zm0 4.2893c-0.7852 0-1.4298-0.6446-1.4298-1.4298s0.6446-1.4298 1.4298-1.4298 1.4298 0.6446 1.4298 1.4298-0.6329 1.4298-1.4298 1.4298z" fill="#fff"/>
<path d="m16.664 16.665 11.438-11.438 1.0078 1.0079-11.438 11.438-1.0078-1.0079z" fill="#fff"/>
</svg>
