<svg width="70" height="54" viewBox="0 0 70 54" xmlns="http://www.w3.org/2000/svg">
<path d="m42.735 5.8583c-11.627 0-21.09 9.4636-21.09 21.09s9.4637 21.09 21.09 21.09c11.627 0 21.09-9.4636 21.09-21.09s-9.4637-21.09-21.09-21.09zm0 39.451c-10.12 0-18.361-8.2405-18.361-18.361s8.2404-18.361 18.361-18.361c10.12 0 18.361 8.2405 18.361 18.361s-8.2275 18.361-18.361 18.361z" fill="#fff"/>
<path d="m55.662 25.584h-10.571c-0.4764-0.8112-1.352-1.3648-2.3563-1.3648-0.2446 0-0.4764 0.0386-0.7082 0.0901l-2.4978-2.4979c-0.5279-0.5279-1.3906-0.5279-1.9185 0s-0.5279 1.3906 0 1.9314l2.4979 2.4979c-0.0644 0.2189-0.0902 0.4635-0.0902 0.7081 0 1.5065 1.2232 2.7168 2.7168 2.7168 1.0043 0 1.8799-0.5536 2.3563-1.3648h10.571c0.7468 0 1.3649-0.6052 1.3649-1.3648 0-0.7597-0.6181-1.352-1.3649-1.352z" fill="#fff"/>
<path d="m42.734 0c-8.8456 0-16.713 4.2876-21.631 10.893h-12.386c-0.74679 0-1.3648 0.6051-1.3648 1.3648s0.60516 1.3648 1.3648 1.3648h10.61c-0.837 1.4678-1.5451 3.0129-2.0988 4.6353h-0.0772-15.786c-0.75967-0.0258-1.3648 0.5923-1.3648 1.339 0 0.7468 0.60516 1.3649 1.3648 1.3649h15.103c-0.3477 1.4936-0.5537 3.0515-0.6438 4.6224h-5.2018c-0.74682 0-1.3649 0.6051-1.3649 1.3648s0.60516 1.3648 1.3649 1.3648h5.2018c0.2188 4.3391 1.4678 8.4079 3.5022 11.974h-17.962c-0.75967 0-1.3648 0.6052-1.3648 1.3649 0 0.7468 0.60516 1.3648 1.3648 1.3648h19.751c4.9185 6.6052 12.786 10.893 21.631 10.893 14.859 0 26.949-12.09 26.949-26.949 0-14.859-12.103-26.962-26.962-26.962zm0 51.181c-13.365 0-24.232-10.867-24.232-24.232s10.88-24.232 24.232-24.232 24.232 10.867 24.232 24.232-10.867 24.232-24.232 24.232z" fill="#fff"/>
<path d="m42.736 38.511c-0.3605 0-0.7081 0.1416-0.9657 0.3991-0.2575 0.2575-0.3991 0.6052-0.3991 0.9657s0.1416 0.7081 0.3991 0.9657c0.2576 0.2575 0.6052 0.3991 0.9657 0.3991s0.7082-0.1416 0.9657-0.3991c0.2575-0.2576 0.3991-0.6052 0.3991-0.9657s-0.1416-0.7082-0.3991-0.9657-0.6052-0.3991-0.9657-0.3991z" fill="#fff"/>
<path d="m42.736 15.386c0.3605 0 0.7082-0.1416 0.9657-0.3992 0.2575-0.2575 0.3991-0.6051 0.3991-0.9656 0-0.3606-0.1416-0.7082-0.3991-0.9657s-0.6052-0.3992-0.9657-0.3992-0.7081 0.1417-0.9657 0.3992c-0.2575 0.2575-0.3991 0.6051-0.3991 0.9657 0 0.3605 0.1416 0.7081 0.3991 0.9656 0.2576 0.2576 0.6052 0.3992 0.9657 0.3992z" fill="#fff"/>
<path d="m29.818 25.584c-0.3606 0-0.7082 0.1416-0.9657 0.3992-0.2575 0.2575-0.3992 0.6051-0.3992 0.9656 0 0.3606 0.1417 0.7082 0.3992 0.9657s0.6051 0.3992 0.9657 0.3992c0.3605 0 0.7081-0.1417 0.9656-0.3992s0.3992-0.6051 0.3992-0.9657c0-0.3605-0.1417-0.7081-0.3992-0.9656-0.2575-0.2447-0.618-0.3992-0.9656-0.3992z" fill="#fff"/>
<path d="m1.3648 35.666h7.352c0.7468 0 1.3648-0.6052 1.3648-1.3648 0-0.7468-0.60517-1.3649-1.3648-1.3649h-7.352c-0.75967 0-1.3648 0.6052-1.3648 1.3649 0 0.7468 0.60516 1.3648 1.3648 1.3648z" fill="#fff"/>
</svg>
