<svg width="72" height="64" viewBox="0 0 72 64" fill="none" xmlns="http://www.w3.org/2000/svg">
<path d="M21.2505 64C20.9102 64 20.6093 63.8168 20.4392 63.5289C20.2691 63.2411 20.2691 62.8878 20.4392 62.5999L22.4936 59.0145C22.6637 58.7266 22.9646 58.5435 23.3048 58.5435H30.1092L31.9673 52.0401H3.32366C1.49172 52.0401 0 50.5484 0 48.7164V3.32366C0 1.49172 1.49172 0 3.32366 0H67.8471C69.679 0 71.1707 1.49172 71.1707 3.32366V48.7295C71.1707 50.5614 69.679 52.0532 67.8471 52.0532H39.2165L41.0746 58.5565H47.879C48.2061 58.5565 48.5201 58.7397 48.6902 59.0276L50.7446 62.613C50.9147 62.9008 50.9147 63.2541 50.7446 63.542C50.5745 63.8299 50.2736 64 49.9333 64H21.2505ZM22.8599 62.1419H48.3239L47.3425 60.4277H23.8413L22.8599 62.1419ZM32.0458 58.5565H39.138L37.2799 52.0532H33.9039L32.0458 58.5565ZM3.32366 1.87119C2.52545 1.87119 1.87119 2.52545 1.87119 3.32366V48.7295C1.87119 49.5277 2.52545 50.182 3.32366 50.182H67.8471C68.6453 50.182 69.2995 49.5277 69.2995 48.7295V3.32366C69.2995 2.52545 68.6453 1.87119 67.8471 1.87119H3.32366ZM4.51441 48.4678C4.00409 48.4678 3.58536 48.0491 3.58536 47.5387V4.51441C3.58536 4.00409 4.00409 3.58536 4.51441 3.58536H66.6563C67.1666 3.58536 67.5854 4.00409 67.5854 4.51441V47.5387C67.5854 48.0491 67.1666 48.4678 66.6563 48.4678H4.51441ZM5.45655 46.6097H65.7273V5.45655H5.45655V46.6097Z" fill="white"/>
<path d="M15.6114 33.5375C15.5198 33.5375 15.4151 33.5244 15.3235 33.4982C14.931 33.3674 14.6693 33.0141 14.6693 32.6084V28.7614H10.8353C10.325 28.7614 9.90625 28.3426 9.90625 27.8323V20.6616C9.90625 20.1513 10.325 19.7325 10.8353 19.7325H14.6824V15.8855C14.6824 15.4798 14.9441 15.1265 15.3366 14.9957C15.4282 14.9695 15.5198 14.9564 15.6114 14.9564C15.9124 14.9564 16.2003 15.1004 16.3704 15.349L22.3503 23.7105C22.5859 24.0376 22.5859 24.4694 22.3503 24.7965L16.3704 33.158C16.2003 33.3805 15.9124 33.5375 15.6114 33.5375ZM11.7644 26.8902H15.6114C16.1217 26.8902 16.5405 27.3089 16.5405 27.8192V29.6904L20.4399 24.2339L16.5405 18.7773V20.6485C16.5405 21.1588 16.1217 21.5776 15.6114 21.5776H11.7644V26.8902Z" fill="white"/>
<path d="M55.5601 33.5375C55.2591 33.5375 54.9713 33.3936 54.8011 33.145L48.8212 24.7835C48.5856 24.4563 48.5856 24.0245 48.8212 23.6974L54.8011 15.3359C54.9713 15.0873 55.2591 14.9434 55.5601 14.9434C55.6517 14.9434 55.7564 14.9564 55.848 14.9826C56.2405 15.1135 56.5022 15.4668 56.5022 15.8724V19.7195H60.3493C60.8596 19.7195 61.2784 20.1382 61.2784 20.6485V27.8193C61.2784 28.3296 60.8596 28.7483 60.3493 28.7483H56.5022V32.5954C56.5022 33.001 56.2405 33.3543 55.848 33.4852C55.7564 33.5244 55.6517 33.5375 55.5601 33.5375ZM50.7316 24.2339L54.631 29.6904V27.8193C54.631 27.3089 55.0498 26.8902 55.5601 26.8902H59.4072V21.5907H55.5601C55.0498 21.5907 54.631 21.1719 54.631 20.6616V18.7904L50.7316 24.2339Z" fill="white"/>
<path d="M34.6504 33.5375V32.229L34.4541 32.1767C32.5568 31.6794 31.1959 30.0176 31.0781 28.081H32.9493C33.0802 29.4157 34.2186 30.4756 35.5925 30.4756C37.0581 30.4756 38.2488 29.2848 38.2488 27.8193C38.2488 26.3537 37.0581 25.163 35.5925 25.163C33.3157 25.163 31.4053 23.475 31.1174 21.2243C30.8295 18.9736 32.2689 16.8538 34.4672 16.2912L34.6635 16.2388V14.9303H36.5347V16.2388L36.731 16.2912C38.6283 16.7884 39.9892 18.4502 40.107 20.3869H38.2358C38.1049 19.0522 36.9665 17.9922 35.5925 17.9922C34.127 17.9922 32.9362 19.183 32.9362 20.6486C32.9362 22.1141 34.127 23.3049 35.5925 23.3049C37.8563 23.3049 39.7798 24.9929 40.0677 27.2435C40.3556 29.4942 38.9162 31.614 36.7179 32.1767L36.5216 32.229V33.5375H34.6504Z" fill="white"/>
<path d="M35.5929 36.7565C28.6839 36.7565 23.0703 31.1429 23.0703 24.2339C23.0703 17.3249 28.6839 11.7113 35.5929 11.7113C42.5019 11.7113 48.1155 17.3249 48.1155 24.2339C48.1155 31.1429 42.4888 36.7565 35.5929 36.7565Z" stroke="white" stroke-width="1.2" stroke-miterlimit="10"/>
</svg>
