<svg width="64" height="64" viewBox="0 0 64 64" fill="none" xmlns="http://www.w3.org/2000/svg">
<path d="M49.5461 22.7118V20.6507C51.2481 20.6507 52.6444 19.2677 52.6444 17.5524C52.6444 15.837 51.2614 14.4541 49.5461 14.4541H47.485C46.9132 14.4541 46.4478 13.9887 46.4478 13.4169C46.4478 12.8451 46.9132 12.3797 47.485 12.3797H50.5833V13.4169H52.6444V10.3187H49.5461V8.25757H47.485V10.3187C45.7829 10.3187 44.3867 11.7016 44.3867 13.4169C44.3867 15.1323 45.7696 16.5152 47.485 16.5152H49.5461C50.1179 16.5152 50.5833 16.9806 50.5833 17.5524C50.5833 18.1242 50.1179 18.5896 49.5461 18.5896H46.4478V17.5524H44.3867V20.6507H47.485V22.7118H49.5461Z" fill="white"/>
<path d="M59.8798 15.4914C59.8798 9.22837 54.7869 4.1355 48.5239 4.1355C42.2608 4.1355 37.168 9.22837 37.168 15.4914C37.168 21.7544 42.2608 26.8473 48.5239 26.8473C54.7869 26.8473 59.8798 21.7411 59.8798 15.4914ZM39.2291 15.4914C39.2291 10.3719 43.3911 6.19658 48.5239 6.19658C53.6566 6.19658 57.8187 10.3586 57.8187 15.4914C57.8187 20.6242 53.6566 24.7862 48.5239 24.7862C43.3911 24.7862 39.2291 20.6109 39.2291 15.4914Z" fill="white"/>
<path d="M64 15.4914C64 6.9412 57.0588 0 48.5219 0C39.985 0 33.0305 6.9412 33.0305 15.4914C33.0305 22.0603 37.1527 27.685 42.9503 29.919L40.8627 32.0066H32.5651L25.3447 40.2643H12.9782L0.279244 54.0137L1.79514 55.4099L13.8824 42.3254H26.2888L33.5092 34.0677H41.727L45.1976 30.5971C46.1417 30.8099 47.1257 30.9163 48.123 30.9429L42.937 36.1288H33.5624L27.3659 44.3865H15.026L0 61.5533V64H59.8778V25.9697C62.4309 23.2171 64 19.5338 64 15.4914ZM35.1049 15.4914C35.1049 8.09807 41.1286 2.07438 48.5219 2.07438C55.9152 2.07438 61.9389 8.09807 61.9389 15.4914C61.9389 22.8847 55.9152 28.9084 48.5219 28.9084C41.1286 28.9084 35.1049 22.8847 35.1049 15.4914ZM51.6202 30.6636V61.9389H47.4847V34.4932L51.2745 30.7035C51.3808 30.6902 51.5005 30.6769 51.6202 30.6636ZM43.7881 38.1899L45.4236 36.5543V61.9389H41.2882V38.1899H43.7881ZM14.4542 61.9389H10.3187V52.8834L14.4542 48.1629V61.9389ZM16.5153 46.4608H20.6507V61.9522H16.5153V46.4608ZM22.7118 46.4608H26.8473V61.9522H22.7118V46.4608ZM28.9084 45.7694L33.0438 40.2643V61.9389H28.9084V45.7694ZM35.1049 38.1899H39.2404V61.9389H35.1049V38.1899ZM8.25764 55.2504V61.9389H2.40681L8.25764 55.2504ZM53.6813 61.9389V30.0652C55.1706 29.5333 56.5668 28.7754 57.8167 27.8446V61.9389H53.6813Z" fill="white"/>
<path d="M6.1978 38.1899H8.25889V34.0545H10.32V21.6747H8.25889V17.5525H6.1978V21.688H4.13672V34.0811H6.1978V38.1899ZM6.1978 23.749H8.25889V32.0067H6.1978V23.749Z" fill="white"/>
<path d="M14.4556 33.0306H16.5167V28.8951H18.5778V18.5764H16.5167V14.4409H14.4556V18.5764H12.3945V28.8951H14.4556V33.0306ZM14.4556 20.6508H16.5167V26.8473H14.4556V20.6508Z" fill="white"/>
<path d="M22.7134 25.8101H24.7745V21.6746H26.8356V13.417H24.7745V9.2948H22.7134V13.4303H20.6523V21.6879H22.7134V25.8101ZM22.7134 15.4914H24.7745V19.6268H22.7134V15.4914Z" fill="white"/>
</svg>
