<svg width="64" height="64" viewBox="0 0 64 64" fill="none" xmlns="http://www.w3.org/2000/svg">
<path d="M48.1469 51.0505C47.7911 51.0505 47.4591 50.9082 47.2101 50.6592L43.6051 47.0542C43.0952 46.5443 43.0952 45.7024 43.6051 45.1925C43.8541 44.9434 44.1862 44.8011 44.5419 44.8011C44.8977 44.8011 45.2297 44.9434 45.4787 45.1925L48.1469 47.8606L54.42 41.5875C54.669 41.3385 55.0011 41.1962 55.3568 41.1962C55.7126 41.1962 56.0446 41.3385 56.2818 41.5875C56.5189 41.8365 56.6731 42.1686 56.6731 42.5243C56.6731 42.8801 56.5308 43.2121 56.2818 43.4611L49.0837 50.6592C48.8347 50.9082 48.5026 51.0505 48.1469 51.0505Z" fill="white"/>
<path d="M24.7605 54.6437C24.215 54.6437 23.7644 54.193 23.7644 53.6475V52.0467L23.2189 51.9992C22.0923 51.9044 21.0725 51.6435 19.5072 50.6118C19.2819 50.4695 19.1277 50.2442 19.0803 49.9833C19.0329 49.7224 19.0803 49.4615 19.2226 49.2362C19.4123 48.9516 19.7206 48.7856 20.0645 48.7856C20.2543 48.7856 20.444 48.8449 20.61 48.9516C21.6061 49.6038 22.2583 49.8766 23.1003 49.9833L23.7762 50.0782V42.0263L23.4323 41.8721C22.4362 41.4215 21.6891 40.9827 21.0606 40.4965C19.8867 39.5834 19.3649 37.9707 19.6732 36.2986C20.0171 34.4487 21.2978 32.9901 23.0054 32.4684C23.1122 32.4328 23.7644 32.2668 23.7644 32.2668V30.7608C23.7644 30.2153 24.215 29.7646 24.7605 29.7646C25.306 29.7646 25.7566 30.2153 25.7566 30.7608V32.1363L26.2546 32.2193C27.6658 32.4565 28.6856 33.1324 29.1718 33.7016C29.3497 33.9032 29.4327 34.1641 29.4208 34.425C29.3971 34.6859 29.2785 34.9349 29.077 35.1128C28.8991 35.267 28.6619 35.3618 28.4247 35.3618C28.1401 35.3618 27.8674 35.2432 27.6777 35.0298C27.5591 34.9112 27.2033 34.5792 26.5511 34.3539L25.7684 34.0811V40.71C25.7684 40.71 26.7646 41.0776 27.061 41.1843C29.6817 42.1093 31.081 44.4335 30.6304 47.1017C30.4051 48.418 29.7529 49.6394 28.7686 50.5406C28.0334 51.2166 27.1796 51.6672 26.2309 51.9044L25.7803 52.0111V53.6831C25.7566 54.193 25.306 54.6437 24.7605 54.6437ZM25.7566 50.0426L26.6341 49.5682C27.6895 48.999 28.4485 47.9318 28.65 46.7222C28.7568 46.1056 28.9109 44.0185 26.5748 43.0935L25.7566 42.7615V50.0426ZM22.8276 34.7215C22.2109 35.1484 21.7722 35.848 21.6299 36.6425C21.452 37.5794 21.701 38.445 22.2821 38.9075C22.4599 39.0379 22.6497 39.1802 22.8513 39.2988L23.7644 39.868V34.0574L22.8276 34.7215Z" fill="white"/>
<path d="M49.9477 64C49.8173 64 49.6869 63.9763 49.5683 63.9407C47.7065 63.3834 45.9396 62.5533 44.3506 61.4742L44.0185 61.2488L43.6865 61.4742C41.2911 63.1225 38.4925 63.9881 35.599 63.9881H14.1471C6.36798 64 0.0118584 57.7506 0 50.09V49.9596C0 38.6585 7.95701 28.9583 15.748 20.9539L15.914 20.776V14.1115L15.8073 13.9574C13.3407 10.4829 12.0956 6.66444 12.0956 2.60886V1.31629C12.0956 0.592922 12.6885 0 13.4119 0H14.6807C18.1197 0 22.7563 2.33611 24.5825 3.33222L24.8671 3.48638L25.1517 3.33222C26.9779 2.33611 31.6027 0 35.0535 0H36.3224C37.0458 0 37.6387 0.592922 37.6387 1.31629V2.58514C37.6387 6.64073 36.3936 10.4591 33.927 13.9337L33.8203 14.0878V20.7523L33.9863 20.9301C36.3105 23.3137 39.3344 26.5273 42.0619 30.2034L42.5718 30.8912L43.0343 30.1679C43.1647 29.9544 43.2952 29.741 43.4019 29.5157L43.6746 28.982C43.8999 28.5314 44.3506 28.2587 44.8486 28.2587H55.035C55.5331 28.2587 55.9837 28.5433 56.209 28.982L56.4817 29.5157C57.6676 31.8755 60.0393 33.3459 62.6719 33.3459C63.3952 33.3459 63.9881 33.9389 63.9881 34.6622V45.5601C63.9881 49.7106 62.6719 53.6713 60.1934 57.0154C57.715 60.3476 54.2998 62.743 50.3154 63.9407C50.2086 63.9763 50.0782 64 49.9477 64ZM17.6098 22.8038C10.1983 30.4169 2.63257 39.5953 2.63257 49.9477V50.0782C2.64443 56.3039 7.81471 61.3674 14.1471 61.3674H35.5872C37.5438 61.3674 39.5005 60.8575 41.2199 59.9088L41.8959 59.5294L41.3504 58.972C40.7575 58.3672 40.2001 57.7032 39.6902 57.0154C37.2118 53.6832 35.8955 49.7224 35.8955 45.5601V34.6622C35.8955 33.9389 36.4884 33.3459 37.2118 33.3459C38.113 33.3459 38.9905 33.1799 39.8088 32.8479L40.5203 32.5633L40.0697 31.9466C37.4134 28.3417 34.425 25.1636 32.1245 22.7919L31.9466 22.614H17.7877L17.6098 22.8038ZM45.5008 31.1996C44.1134 33.6187 41.7536 35.3144 39.0143 35.8243L38.5281 35.9192V45.572C38.5281 52.6752 43.0343 58.972 49.7462 61.237L49.9359 61.2963L50.1256 61.237C56.8375 58.9602 61.3556 52.6633 61.3556 45.572V35.9192L60.8694 35.8243C58.1301 35.3026 55.7702 33.6187 54.3828 31.1996L54.2168 30.9031H45.6668L45.5008 31.1996ZM18.5466 19.9815H31.1877V14.9772H18.5466V19.9815ZM14.74 3.28479C14.8705 6.45099 15.8429 9.32073 17.7165 12.0837L17.8944 12.3446H31.8399L32.0178 12.0837C33.8914 9.32073 34.8757 6.43913 34.9943 3.28479L35.018 2.597L34.3302 2.66815C30.7134 3.05948 25.5905 6.1071 25.5312 6.13081C25.3296 6.2494 25.0925 6.32055 24.8553 6.32055C24.6181 6.32055 24.381 6.26126 24.1794 6.13081C24.1319 6.09524 18.9972 3.05948 15.3804 2.66815L14.6926 2.597L14.74 3.28479Z" fill="white"/>
</svg>
