<svg width="430" height="144" viewBox="0 0 430 144" xmlns="http://www.w3.org/2000/svg"><title>ticket</title><defs><linearGradient x1="0%" y1="50%" y2="50%" id="a"><stop stop-color="#FFED8C" offset="0%"/><stop stop-color="#996522" offset="100%"/></linearGradient></defs><path d="M372.584 100h9.871l6.545 8.01.01-.01H400v4a2 2 0 0 1-2 2H32a2 2 0 0 1-2-2V76h13.99l.01.01L50.545 68h9.871a5.001 5.001 0 1 0 0-4H49.01L49 63.99 42.455 72H30V55h17.99l.01.01L54.545 47h15.871a5 5 0 1 0 0-4H53.01L53 42.99 46.456 51H30V33a2 2 0 0 1 2-2h366a2 2 0 0 1 2 2v50h-13.455L380 74.99l-.01.01h-17.406a5.001 5.001 0 1 0 0 4h15.871L385 87.01l.01-.01H400v17h-9.455L384 95.99l-.009.01h-11.407a5.001 5.001 0 1 0 0 4zM185 124h-55v18a2 2 0 1 1-4 0v-18h-10v18a2 2 0 1 1-4 0v-18h-10v18a2 2 0 1 1-4 0v-18H88v18a2 2 0 1 1-4 0v-18H74v18a2 2 0 1 1-4 0v-18H30c-5.523 0-10-4.477-10-10v-12H2a2 2 0 1 1 0-4h18V88H2a2 2 0 1 1 0-4h18V74H2a2 2 0 1 1 0-4h18V60H2a2 2 0 1 1 0-4h18V46H2a2 2 0 1 1 0-4h18V31c0-5.523 4.477-10 10-10h40V2a2 2 0 1 1 4 0v19h10V2a2 2 0 1 1 4 0v19h10V2a2 2 0 1 1 4 0v19h10V2a2 2 0 1 1 4 0v19h10V2a2 2 0 1 1 4 0v19h55V2a2 2 0 1 1 4 0v19h10V2a2 2 0 1 1 4 0v19h10V2a2 2 0 1 1 4 0v19h10V2a2 2 0 1 1 4 0v19h10V2a2 2 0 1 1 4 0v19h55V2a2 2 0 1 1 4 0v19h10V2a2 2 0 1 1 4 0v19h10V2a2 2 0 1 1 4 0v19h10V2a2 2 0 1 1 4 0v19h10V2a2 2 0 1 1 4 0v19h40c5.523 0 10 4.477 10 10v11h18a2 2 0 1 1 0 4h-18v10h18a2 2 0 1 1 0 4h-18v10h18a2 2 0 1 1 0 4h-18v10h18a2 2 0 1 1 0 4h-18v10h18a2 2 0 1 1 0 4h-18v12c0 5.523-4.477 10-10 10h-40v18a2 2 0 1 1-4 0v-18h-10v18a2 2 0 1 1-4 0v-18h-10v18a2 2 0 1 1-4 0v-18h-10v18a2 2 0 1 1-4 0v-18h-10v18a2 2 0 1 1-4 0v-18h-55v18a2 2 0 1 1-4 0v-18h-10v18a2 2 0 1 1-4 0v-18h-10v18a2 2 0 1 1-4 0v-18h-10v18a2 2 0 1 1-4 0v-18h-10v18a2 2 0 1 1-4 0v-18zM30 26a5 5 0 0 0-5 5v83a5 5 0 0 0 5 5h370a5 5 0 0 0 5-5V31a5 5 0 0 0-5-5H30z" fill="url(#a)" fill-rule="evenodd"/></svg>