<svg id="Pouch" xmlns="http://www.w3.org/2000/svg" viewBox="0 0 30 32"><style>.st0{fill-rule:evenodd;clip-rule:evenodd;fill:#9f9f9f}</style><path class="st0" d="M27.7 32H2.3C1 32 0 31 0 29.7V4.5c0-1.3 1-2.3 2.3-2.3h2.3v4.6h5.8V2.2h9.2v4.6h5.8V2.2h2.3c1.3 0 2.3 1 2.3 2.3v25.2c0 1.3-1 2.3-2.3 2.3zm0-21.8H2.3v19.5h25.4V10.2zM8.1 21.7H4.6v-3.4h3.5v3.4zm0 5.7H4.6V24h3.5v3.4zM13.8 16h-3.5v-3.4h3.5V16zm0 5.7h-3.5v-3.4h3.5v3.4zm0 5.7h-3.5V24h3.5v3.4zM19.6 16h-3.5v-3.4h3.5V16zm0 5.7h-3.5v-3.4h3.5v3.4zm5.8-5.7h-3.5v-3.4h3.5V16zm0 5.7h-3.5v-3.4h3.5v3.4zM20.8 0h3.5v5.7h-3.5V0zm-15 0h3.5v5.7H5.8V0z"/></svg>