<svg xmlns="http://www.w3.org/2000/svg" width="12" height="12" viewBox="0 0 12 12"><defs><style>.phn-1{fill:#66767a;fill-rule:evenodd}</style></defs><path id="phn" data-name="phn" class="phn-1" d="M196.33 8.169l.7.7a.838.838 0 0 1 0 1.3l-.874.871a.182.182 0 0 0-.051.239 5.01 5.01 0 0 0 .805 1.282 8.937 8.937 0 0 0 2.227 2.016c.189.12.394.205.583.307a.169.169 0 0 0 .24-.051c.291-.308.582-.6.891-.889a.829.829 0 0 1 1.268 0c.479.478.959.957 1.439 1.418a.861.861 0 0 1 0 1.3c-.274.273-.566.53-.805.82a1.607 1.607 0 0 1-1.371.513 5.876 5.876 0 0 1-2.193-.632 11.949 11.949 0 0 1-3.941-3.075 10.665 10.665 0 0 1-1.919-3.2 4.536 4.536 0 0 1-.325-1.777 1.454 1.454 0 0 1 .462-.974c.309-.29.6-.6.891-.888a.854.854 0 0 1 1.268 0c.226.241.466.481.705.72zm6.237 3.639a4.156 4.156 0 0 0-1.148-2.221 4.224 4.224 0 0 0-2.347-1.179l-.137.923a3.18 3.18 0 0 1 1.816.906 3.064 3.064 0 0 1 .891 1.726zm2.433-.171A6.892 6.892 0 0 0 199.175 6l-.137.923a5.949 5.949 0 0 1 5.037 4.852z" transform="translate(-193 -6)"/></svg>